<?xml version="1.0" encoding="utf-8"?>
<!-- Generator: Adobe Illustrator 21.1.0, SVG Export Plug-In . SVG Version: 6.00 Build 0)  -->
<svg version="1.1" id="DPP-PIN-MARKER" xmlns="http://www.w3.org/2000/svg" xmlns:xlink="http://www.w3.org/1999/xlink" x="0px"
	 y="0px" viewBox="0 0 32 48" style="enable-background:new 0 0 32 48;" width="32" height="48" xml:space="preserve">
<style type="text/css">
	.st0{fill:#F26223;}
	.st1{fill:#FFFFFF;}
</style>
<g>
	<g>
		<path class="st0" d="M16,2.87c-8.27,0-15,6.73-15,15c0,3.28,1.04,6.41,3.01,9.02l12,18.24l12.22-18.58l0.01-0.01
			C30.04,23.99,31,21,31,17.87C31.01,9.6,24.28,2.87,16,2.87L16,2.87z"/>
	</g>
</g>
<path class="st1" d="M24.85,14.66l-8.59-6.93c-0.15-0.12-0.36-0.12-0.51,0l-8.59,6.93c-0.18,0.14-0.2,0.4-0.06,0.58
	c0.14,0.18,0.4,0.2,0.58,0.06l0.97-0.78v8.67C8.64,23.63,9,24,9.45,24h13.09c0.46,0,0.82-0.36,0.82-0.82v-8.67l0.97,0.78
	c0.08,0.06,0.17,0.09,0.26,0.09c0.12,0,0.24-0.05,0.32-0.15C25.05,15.06,25.02,14.8,24.85,14.66z M13.95,23.16v-5.73h4.09v5.73
	H13.95z M22.55,23.18h-3.68v-6c0-0.32-0.26-0.57-0.57-0.57h-4.58c-0.32,0-0.57,0.26-0.57,0.57v6H9.45v-9.33L16,8.57l6.55,5.28V23.18
	z"/>
</svg>
