<?xml version="1.0" encoding="utf-8"?>
<!-- Generator: Adobe Illustrator 20.0.0, SVG Export Plug-In . SVG Version: 6.00 Build 0)  -->
<svg version="1.1" id="DPP-PIN-MARKER" xmlns="http://www.w3.org/2000/svg" xmlns:xlink="http://www.w3.org/1999/xlink" x="0px"
	 y="0px" viewBox="0 0 48 64" style="enable-background:new 0 0 48 64;" width="24" height="36" xml:space="preserve">
<style type="text/css">
	.st0{fill:#FFFFFF;}
	.st1{fill:#F26223;}
	.st2{fill:none;stroke:#F26223;stroke-width:2;stroke-miterlimit:10;}
</style>
<g>
	<g>
		<path class="st0" d="M6.9,35.76c-2.89-3.84-4.4-8.35-4.4-13.11c0-11.98,9.74-21.72,21.72-21.72c11.98,0,21.72,9.74,21.72,21.72
			c0,4.52-1.38,8.86-3.99,12.54L24.24,62.11L6.9,35.76z"/>
	</g>
	<g>
		<path class="st1" d="M24.22,1.93c11.43,0,20.72,9.3,20.72,20.72c0,4.31-1.32,8.45-3.83,11.99l-0.03,0.05l-16.84,25.6L7.74,35.21
			l-0.07-0.1C4.94,31.49,3.5,27.19,3.5,22.65C3.5,11.22,12.8,1.93,24.22,1.93 M24.22-0.07C11.7-0.07,1.5,10.12,1.5,22.65
			c0,4.97,1.58,9.7,4.56,13.66l18.17,27.62l18.51-28.14l0.01-0.02c2.73-3.85,4.18-8.39,4.18-13.12
			C46.94,10.12,36.75-0.07,24.22-0.07L24.22-0.07z"/>
	</g>
</g>
<g>
	<g>
		<path class="st2" d="M16.25,26.64l-3.5-11.61h23.37l-2.42,11.61H16.25z"/>
		<g>
			<path class="st1" d="M31.77,31.92c1.09,0,1.98,0.89,1.98,1.98s-0.89,1.98-1.98,1.98c-1.09,0-1.98-0.89-1.98-1.98
				S30.67,31.92,31.77,31.92 M31.77,29.92c-2.19,0-3.98,1.79-3.98,3.98s1.79,3.98,3.98,3.98s3.98-1.79,3.98-3.98
				S33.96,29.92,31.77,29.92L31.77,29.92z"/>
		</g>
		<circle class="st1" cx="31.77" cy="33.9" r="0.66"/>
		<g>
			<path class="st1" d="M18.3,31.92c1.09,0,1.98,0.89,1.98,1.98s-0.89,1.98-1.98,1.98S16.32,35,16.32,33.9S17.21,31.92,18.3,31.92
				 M18.3,29.92c-2.19,0-3.98,1.79-3.98,3.98s1.79,3.98,3.98,3.98s3.98-1.79,3.98-3.98S20.5,29.92,18.3,29.92L18.3,29.92z"/>
		</g>
		<circle class="st1" cx="18.3" cy="33.9" r="0.66"/>
	</g>
	<polyline class="st2" points="7.88,12.12 12.7,12.12 13.41,14.49 	"/>
	<polyline class="st2" points="16.7,27.16 17.12,28.52 17.12,30.33 33.75,30.33 	"/>
</g>
</svg>
