<?xml version="1.0" encoding="utf-8"?>
<!-- Generator: Adobe Illustrator 20.0.0, SVG Export Plug-In . SVG Version: 6.00 Build 0)  -->
<svg version="1.1" id="DPP-PIN-MARKER" xmlns="http://www.w3.org/2000/svg" xmlns:xlink="http://www.w3.org/1999/xlink" x="0px"
	 y="0px" viewBox="0 0 48 64" style="enable-background:new 0 0 48 64;" width="24" height="36" xml:space="preserve">
<style type="text/css">
	.st0{fill:#FFFFFF;}
	.st1{fill:#F26223;}
	.st2{fill:none;stroke:#F26223;stroke-width:2;stroke-linecap:round;stroke-miterlimit:10;}
</style>
<g>
	<g>
		<path class="st0" d="M6.9,35.76c-2.89-3.84-4.4-8.35-4.4-13.11c0-11.98,9.74-21.72,21.72-21.72c11.98,0,21.72,9.74,21.72,21.72
			c0,4.52-1.38,8.86-3.99,12.54L24.24,62.11L6.9,35.76z"/>
	</g>
	<g>
		<path class="st1" d="M24.22,1.93c11.43,0,20.72,9.3,20.72,20.72c0,4.31-1.32,8.45-3.83,11.99l-0.03,0.05l-16.84,25.6L7.74,35.21
			l-0.07-0.1C4.94,31.49,3.5,27.19,3.5,22.65C3.5,11.22,12.8,1.93,24.22,1.93 M24.22-0.07C11.7-0.07,1.5,10.12,1.5,22.65
			c0,4.97,1.58,9.7,4.56,13.66l18.17,27.62l18.51-28.14l0.01-0.02c2.73-3.85,4.18-8.39,4.18-13.12
			C46.94,10.12,36.75-0.07,24.22-0.07L24.22-0.07z"/>
	</g>
</g>
<g>
	<path class="st2" d="M31.57,12.51c-1.75,0-3.18,1.43-3.18,3.18c0,1.75,1.43,3.18,3.18,3.18s3.18-1.43,3.18-3.18
		C34.74,13.94,33.32,12.51,31.57,12.51z"/>
	<path class="st2" d="M21.95,35.49l6.98-4.74l-6.43-5.22L12,34.85"/>
	<path class="st2" d="M36,22.63l-5.35,3.07L28,20.56l-0.39-0.37l-5.45-2.77l-4.72,3.31"/>
</g>
<line class="st2" x1="22.5" y1="25.53" x2="27.79" y2="20.35"/>
</svg>
