<?xml version="1.0" encoding="utf-8"?>
<!-- Generator: Adobe Illustrator 20.0.0, SVG Export Plug-In . SVG Version: 6.00 Build 0)  -->
<svg version="1.1" id="DPP-PIN-MARKER" xmlns="http://www.w3.org/2000/svg" xmlns:xlink="http://www.w3.org/1999/xlink" x="0px"
	 y="0px" viewBox="0 0 48 64" style="enable-background:new 0 0 48 64;" width="24" height="36" xml:space="preserve">
<style type="text/css">
	.st0{fill:#FFFFFF;}
	.st1{fill:#F26223;}
	.st2{fill:none;stroke:#F26223;stroke-width:2;stroke-miterlimit:10;}
</style>
<g>
	<g>
		<path class="st0" d="M6.9,35.76c-2.89-3.84-4.4-8.35-4.4-13.11c0-11.98,9.74-21.72,21.72-21.72c11.98,0,21.72,9.74,21.72,21.72
			c0,4.52-1.38,8.86-3.99,12.54L24.24,62.11L6.9,35.76z"/>
	</g>
	<g>
		<path class="st1" d="M24.22,1.93c11.43,0,20.72,9.3,20.72,20.72c0,4.31-1.32,8.45-3.83,11.99l-0.03,0.05l-16.84,25.6L7.74,35.21
			l-0.07-0.1C4.94,31.49,3.5,27.19,3.5,22.65C3.5,11.22,12.8,1.93,24.22,1.93 M24.22-0.07C11.7-0.07,1.5,10.12,1.5,22.65
			c0,4.97,1.58,9.7,4.56,13.66l18.17,27.62l18.51-28.14l0.01-0.02c2.73-3.85,4.18-8.39,4.18-13.12
			C46.94,10.12,36.75-0.07,24.22-0.07L24.22-0.07z"/>
	</g>
</g>
<g>
	<g>
		<g>
			<path class="st1" d="M33.67,12c0.65,0,1.18,0.53,1.18,1.18v21.64c0,0.65-0.53,1.18-1.18,1.18h-2.86h-7.95h-2.86
				c-0.65,0-1.18-0.53-1.18-1.18V13.18c0-0.65,0.53-1.18,1.18-1.18H33.67 M33.67,10H19.99c-1.76,0-3.18,1.42-3.18,3.18v21.64
				c0,1.76,1.42,3.18,3.18,3.18h2.86h7.95h2.86c1.76,0,3.18-1.42,3.18-3.18V13.18C36.85,11.42,35.43,10,33.67,10L33.67,10z"/>
		</g>
		<g>
			<path class="st1" d="M30.4,16.45v1.41h-7.14v-1.41H30.4 M32.4,14.45H21.26v5.41H32.4V14.45L32.4,14.45z"/>
		</g>
	</g>
	<g>
		<path class="st1" d="M12.42,12.62c0.12,0,0.24,0.03,0.35,0.09l0.37,0.2c0.17,0.09,0.3,0.25,0.35,0.44
			c0.06,0.19,0.03,0.39-0.06,0.56l-0.53,0.97l0.2,0.11c0.5,0.27,0.68,0.9,0.41,1.4l-1.7,3.11c-0.05,0.09-0.11,0.17-0.18,0.24
			c-0.19,0.19-0.46,0.3-0.73,0.3c-0.17,0-0.33-0.04-0.49-0.13l-0.95-0.52c-0.24-0.13-0.42-0.35-0.5-0.61
			c-0.08-0.26-0.05-0.54,0.08-0.78L11.77,13C11.9,12.76,12.16,12.62,12.42,12.62 M12.42,10.62L12.42,10.62c-1,0-1.92,0.55-2.4,1.42
			l-2.72,5c-0.39,0.71-0.47,1.53-0.25,2.31c0.23,0.78,0.75,1.42,1.46,1.8l0.95,0.52c0.44,0.24,0.94,0.37,1.45,0.37
			c0.8,0,1.58-0.32,2.14-0.88c0.21-0.21,0.38-0.44,0.52-0.7l1.7-3.12c0.49-0.89,0.48-1.93,0.06-2.78c0.23-0.57,0.26-1.19,0.08-1.79
			c-0.21-0.7-0.67-1.28-1.32-1.63l-0.37-0.2C13.32,10.73,12.87,10.62,12.42,10.62L12.42,10.62z"/>
	</g>
	<path class="st2" d="M17.55,32.91c-3.94-0.31-7.33-1.72-8.57-4.1c-1.82-3.51-0.65-6.8,0.8-8.95"/>
</g>
</svg>
