<?xml version="1.0" encoding="utf-8"?>
<!-- Generator: Adobe Illustrator 20.0.0, SVG Export Plug-In . SVG Version: 6.00 Build 0)  -->
<svg version="1.1" id="DPP-PIN-MARKER" xmlns="http://www.w3.org/2000/svg" xmlns:xlink="http://www.w3.org/1999/xlink" x="0px"
	 y="0px" viewBox="0 0 48 64" style="enable-background:new 0 0 48 64;" width="24" height="36" xml:space="preserve">
<style type="text/css">
	.st0{fill:#FFFFFF;}
	.st1{fill:#F26223;}
	.st2{display:none;fill:#F26223;}
	.st3{fill:none;stroke:#F26223;stroke-width:2;stroke-linecap:round;stroke-miterlimit:10;}
</style>
<g>
	<g>
		<path class="st0" d="M6.9,35.76c-2.89-3.84-4.4-8.35-4.4-13.11c0-11.98,9.74-21.72,21.72-21.72c11.98,0,21.72,9.74,21.72,21.72
			c0,4.52-1.38,8.86-3.99,12.54L24.24,62.11L6.9,35.76z"/>
	</g>
	<g>
		<path class="st1" d="M24.22,1.93c11.43,0,20.72,9.3,20.72,20.72c0,4.31-1.32,8.45-3.83,11.99l-0.03,0.05l-16.84,25.6L7.74,35.21
			l-0.07-0.1C4.94,31.49,3.5,27.19,3.5,22.65C3.5,11.22,12.8,1.93,24.22,1.93 M24.22-0.07C11.7-0.07,1.5,10.12,1.5,22.65
			c0,4.97,1.58,9.7,4.56,13.66l18.17,27.62l18.51-28.14l0.01-0.02c2.73-3.85,4.18-8.39,4.18-13.12
			C46.94,10.12,36.75-0.07,24.22-0.07L24.22-0.07z"/>
	</g>
</g>
<g>
	<g>
		<g>
			<path class="st2" d="M27.52,36.53c-1.22,0-2.21-0.99-2.22-2.21l1-11.99l0.02-0.27l-0.23-0.11c-0.16-0.08-0.31-0.17-0.45-0.27
				c-0.8-0.58-1.29-1.49-1.32-2.49c0-0.02,0-0.05,0-0.07c0.31-5.54,1.69-6.94,1.69-6.94c0.37-0.43,0.92-0.69,1.5-0.69
				c0.58,0,1.12,0.25,1.49,0.68c0,0,1.37,1.41,1.69,6.95c0.06,1.15-0.63,2.27-1.77,2.84l-0.21,0.11l0.03,0.28l1,11.99
				C29.74,35.54,28.74,36.53,27.52,36.53z"/>
			<g>
				<path class="st1" d="M29.37,11c0.71,0,1.38,0.3,1.84,0.83c0.2,0.21,1.5,1.8,1.81,7.24c0.07,1.32-0.69,2.58-1.95,3.25l1,11.96
					l0,0.02l0,0.02C32.07,35.8,30.86,37,29.38,37c-1.48,0-2.68-1.2-2.69-2.68l0-0.02l0-0.02l1-11.95c-0.16-0.08-0.31-0.17-0.46-0.28
					c-0.93-0.67-1.48-1.71-1.52-2.86l0-0.02l0-0.02l0-0.02l0-0.06c0.31-5.43,1.61-7.02,1.81-7.23C27.99,11.31,28.66,11,29.37,11
					 M29.37,9c-1.27,0-2.48,0.55-3.33,1.5c-0.61,0.67-2,2.8-2.32,8.46l0,0.08l0,0.07l0,0.11c0.05,1.59,0.73,3.04,1.89,4.07
					l-0.9,10.81l-0.01,0.09l0,0.11C24.7,36.91,26.81,39,29.38,39c2.57,0,4.68-2.09,4.69-4.67l0-0.09l-0.01-0.11l-0.91-10.84
					c1.25-1.11,1.95-2.69,1.86-4.33c-0.32-5.67-1.71-7.8-2.32-8.47C31.85,9.54,30.64,9,29.37,9L29.37,9z"/>
			</g>
		</g>
		<g>
			<path class="st1" d="M19.53,11.27c0.48,0,0.88,0.37,0.92,0.84l0.61,6.96c-0.02,1.14-0.67,2.22-1.69,2.73l-0.23,0.15
				C19.05,22,19,22.11,19,22.21l1.04,12.5c0,1.12-0.92,2.03-2.04,2.03c-1.12,0-2.03-0.91-2.04-2.01l1.04-12.56
				c0.01-0.11-0.06-0.22-0.16-0.26l-0.21-0.08c-1.01-0.51-1.65-1.51-1.67-2.61l0.52-7.1c0.04-0.48,0.44-0.86,0.92-0.86H19.53
				 M19.53,9.27h-3.12c-1.53,0-2.81,1.19-2.92,2.71l-0.52,7.1l-0.01,0.09l0,0.09c0.03,1.52,0.76,2.93,1.96,3.85l-0.95,11.45
				l-0.01,0.09l0,0.09c0.01,2.2,1.82,4,4.04,4c2.22,0,4.03-1.81,4.04-4.03l0-0.09l-0.01-0.09l-0.96-11.47
				c1.2-0.94,1.96-2.41,1.98-3.97l0-0.1l-0.01-0.1l-0.61-6.96C22.32,10.42,21.06,9.27,19.53,9.27L19.53,9.27z"/>
		</g>
	</g>
	<line class="st3" x1="19.24" y1="11.3" x2="19.24" y2="17.34"/>
	<line class="st3" x1="16.7" y1="11.3" x2="16.7" y2="17.34"/>
</g>
</svg>
