<?xml version="1.0" encoding="utf-8"?>
<!-- Generator: Adobe Illustrator 20.0.0, SVG Export Plug-In . SVG Version: 6.00 Build 0)  -->
<svg version="1.1" id="DPP-PIN-MARKER" xmlns="http://www.w3.org/2000/svg" xmlns:xlink="http://www.w3.org/1999/xlink" x="0px"
	 y="0px" viewBox="0 0 48 64" style="enable-background:new 0 0 48 64;" width="24" height="36" xml:space="preserve">
<style type="text/css">
	.st0{fill:#FFFFFF;}
	.st1{fill:#F26223;}
	.st2{fill:none;stroke:#F26223;stroke-width:2;stroke-linejoin:round;stroke-miterlimit:10;}
</style>
<g>
	<g>
		<path class="st0" d="M6.9,35.76c-2.89-3.84-4.4-8.35-4.4-13.11c0-11.98,9.74-21.72,21.72-21.72c11.98,0,21.72,9.74,21.72,21.72
			c0,4.52-1.38,8.86-3.99,12.54L24.24,62.11L6.9,35.76z"/>
	</g>
	<g>
		<path class="st1" d="M24.22,1.93c11.43,0,20.72,9.3,20.72,20.72c0,4.31-1.32,8.45-3.83,11.99l-0.03,0.05l-16.84,25.6L7.74,35.21
			l-0.07-0.1C4.94,31.49,3.5,27.19,3.5,22.65C3.5,11.22,12.8,1.93,24.22,1.93 M24.22-0.07C11.7-0.07,1.5,10.12,1.5,22.65
			c0,4.97,1.58,9.7,4.56,13.66l18.17,27.62l18.51-28.14l0.01-0.02c2.73-3.85,4.18-8.39,4.18-13.12
			C46.94,10.12,36.75-0.07,24.22-0.07L24.22-0.07z"/>
	</g>
</g>
<g>
	<path class="st2" d="M25.85,30.42c3.52-0.77,6.16-3.95,6.16-8.06c0-4.74-2.38-12.2-2.38-12.2H18.7c0,0-2.38,7.45-2.38,12.2
		c0,4.11,2.64,7.29,6.16,8.06v5.39l-3.92,2.35h11.2l-3.92-2.35V30.42z"/>
	<g>
		<path class="st1" d="M29.49,22.37c0-0.52,0-1,0-1.56H18.85c0,0.56,0,1.04,0,1.56c0,3.26,2.29,5.72,5.32,5.72
			S29.49,25.63,29.49,22.37z"/>
	</g>
</g>
</svg>
