<?xml version="1.0" encoding="utf-8"?>
<!-- Generator: Adobe Illustrator 20.0.0, SVG Export Plug-In . SVG Version: 6.00 Build 0)  -->
<svg version="1.1" id="DPP-PIN-MARKER" xmlns="http://www.w3.org/2000/svg" xmlns:xlink="http://www.w3.org/1999/xlink" x="0px"
	 y="0px" viewBox="0 0 48 64" style="enable-background:new 0 0 48 64;" width="36" height="48" xml:space="preserve">
<style type="text/css">
	.st0{fill:#F26223;}
	.st1{fill:#FFFFFF;}
</style>
<g>
	<g>
		<path class="st0" d="M6.9,35.76c-2.89-3.84-4.4-8.35-4.4-13.11c0-11.98,9.74-21.72,21.72-21.72c11.98,0,21.72,9.74,21.72,21.72
			c0,4.52-1.38,8.86-3.99,12.54L24.24,62.11L6.9,35.76z"/>
	</g>
	<g>
		<path class="st1" d="M24.22,1.93c11.43,0,20.72,9.3,20.72,20.72c0,4.31-1.32,8.45-3.83,11.99l-0.03,0.05l-16.84,25.6L7.74,35.21
			l-0.07-0.1C4.94,31.49,3.5,27.19,3.5,22.65C3.5,11.22,12.8,1.93,24.22,1.93 M24.22-0.07C11.7-0.07,1.5,10.12,1.5,22.65
			c0,4.97,1.58,9.7,4.56,13.66l18.17,27.62l18.51-28.14l0.01-0.02c2.73-3.85,4.18-8.39,4.18-13.12
			C46.94,10.12,36.75-0.07,24.22-0.07L24.22-0.07z"/>
	</g>
</g>
<g>
	<g>
		<path class="st1" d="M18.12,17.24l4.63,3.74L24,22l1.26-1.02l4.63-3.74l4.08,3.3c0.03,0.02,0.04,0.05,0.04,0.08v10.71h-9.77h-0.47
			H14V20.62c0-0.03,0.01-0.06,0.04-0.08L18.12,17.24 M29.88,14.67L24,19.43l-5.88-4.75l-5.34,4.31c-0.5,0.4-0.78,1-0.78,1.64v12.71
			h11.77h0.47H36V20.62c0-0.64-0.28-1.24-0.78-1.64L29.88,14.67L29.88,14.67z"/>
	</g>
	<g>
		<path class="st1" d="M18.07,23.89v0.06h-0.06v-0.06H18.07 M20.07,21.89h-4.06v4.06h4.06V21.89L20.07,21.89z"/>
	</g>
	<g>
		<path class="st1" d="M29.84,23.89v0.06h-0.06v-0.06H29.84 M31.84,21.89h-4.06v4.06h4.06V21.89L31.84,21.89z"/>
	</g>
</g>
</svg>
