<?xml version="1.0" encoding="utf-8"?>
<!-- Generator: Adobe Illustrator 20.0.0, SVG Export Plug-In . SVG Version: 6.00 Build 0)  -->
<svg version="1.1" id="DPP-PIN-MARKER" xmlns="http://www.w3.org/2000/svg" xmlns:xlink="http://www.w3.org/1999/xlink" x="0px"
	 y="0px" viewBox="0 0 48 64" style="enable-background:new 0 0 48 64;" width="36" height="48" xml:space="preserve">
<style type="text/css">
	.st0{fill:#F26223;}
	.st1{fill:#FFFFFF;}
	.st2{fill:none;stroke:#FFFFFF;stroke-width:2;stroke-miterlimit:10;}
</style>
<g>
	<g>
		<path class="st0" d="M6.9,35.76c-2.89-3.84-4.4-8.35-4.4-13.11c0-11.98,9.74-21.72,21.72-21.72c11.98,0,21.72,9.74,21.72,21.72
			c0,4.52-1.38,8.86-3.99,12.54L24.24,62.11L6.9,35.76z"/>
	</g>
	<g>
		<path class="st1" d="M24.22,1.93c11.43,0,20.72,9.3,20.72,20.72c0,4.31-1.32,8.45-3.83,11.99l-0.03,0.05l-16.84,25.6L7.74,35.21
			l-0.07-0.1C4.94,31.49,3.5,27.19,3.5,22.65C3.5,11.22,12.8,1.93,24.22,1.93 M24.22-0.07C11.7-0.07,1.5,10.12,1.5,22.65
			c0,4.97,1.58,9.7,4.56,13.66l18.17,27.62l18.51-28.14l0.01-0.02c2.73-3.85,4.18-8.39,4.18-13.12
			C46.94,10.12,36.75-0.07,24.22-0.07L24.22-0.07z"/>
	</g>
</g>
<g>
	<path class="st2" d="M15.46,13.19c-0.16,0-0.29,0.13-0.29,0.29v4.04c0,0.16,0.13,0.29,0.29,0.29h17.03c0.16,0,0.29-0.13,0.29-0.29
		v-4.04c0-0.16-0.13-0.29-0.29-0.29H15.46z"/>
	<path class="st2" d="M30.18,34.81h3.75V23.86H36l-1.44-3.57c-0.04-0.11-0.15-0.18-0.27-0.18H13.71c-0.12,0-0.22,0.07-0.27,0.18
		L12,23.86h2.02v10.95H24.7v-8.65h5.47V34.81z M17.33,30.64h3.77v-3.9h-3.77V30.64z"/>
</g>
</svg>
