<?xml version="1.0" encoding="utf-8"?>
<!-- Generator: Adobe Illustrator 20.0.0, SVG Export Plug-In . SVG Version: 6.00 Build 0)  -->
<svg version="1.1" id="DPP-PIN-MARKER" xmlns="http://www.w3.org/2000/svg" xmlns:xlink="http://www.w3.org/1999/xlink" x="0px"
	 y="0px" viewBox="0 0 48 64" style="enable-background:new 0 0 48 64;" width="36" height="48" xml:space="preserve">
<style type="text/css">
	.st0{fill:#F26223;}
	.st1{fill:#FFFFFF;}
</style>
<g>
	<g>
		<path class="st0" d="M6.9,35.76c-2.89-3.84-4.4-8.35-4.4-13.11c0-11.98,9.74-21.72,21.72-21.72c11.98,0,21.72,9.74,21.72,21.72
			c0,4.52-1.38,8.86-3.99,12.54L24.24,62.11L6.9,35.76z"/>
	</g>
	<g>
		<path class="st1" d="M24.22,1.93c11.43,0,20.72,9.3,20.72,20.72c0,4.31-1.32,8.45-3.83,11.99l-0.03,0.05l-16.84,25.6L7.74,35.21
			l-0.07-0.1C4.94,31.49,3.5,27.19,3.5,22.65C3.5,11.22,12.8,1.93,24.22,1.93 M24.22-0.07C11.7-0.07,1.5,10.12,1.5,22.65
			c0,4.97,1.58,9.7,4.56,13.66l18.17,27.62l18.51-28.14l0.01-0.02c2.73-3.85,4.18-8.39,4.18-13.12
			C46.94,10.12,36.75-0.07,24.22-0.07L24.22-0.07z"/>
	</g>
</g>
<g>
	<path class="st1" d="M24.02,14L30,18.32v-3.9h3v5.86l1,0.84V34H14V21.11L24.02,14 M24.03,11.54l-1.17,0.83l-10.02,7.11L12,20.07
		v1.03V34v2h2h20h2v-2V21.11v-0.93l-0.72-0.6L35,19.34v-4.92v-2h-2h-3h-2v1.99l-2.81-2.03L24.03,11.54L24.03,11.54z"/>
</g>
</svg>
