<?xml version="1.0" encoding="utf-8"?>
<!-- Generator: Adobe Illustrator 20.0.0, SVG Export Plug-In . SVG Version: 6.00 Build 0)  -->
<svg version="1.1" id="DPP-PIN-MARKER" xmlns="http://www.w3.org/2000/svg" xmlns:xlink="http://www.w3.org/1999/xlink" x="0px"
	 y="0px" viewBox="0 0 48 64" style="enable-background:new 0 0 48 64;" width="36" height="48" xml:space="preserve">
<style type="text/css">
	.st0{fill:#F26223;}
	.st1{fill:#FFFFFF;}
</style>
<g>
	<g>
		<path class="st0" d="M6.9,35.76c-2.89-3.84-4.4-8.35-4.4-13.11c0-11.98,9.74-21.72,21.72-21.72c11.98,0,21.72,9.74,21.72,21.72
			c0,4.52-1.38,8.86-3.99,12.54L24.24,62.11L6.9,35.76z"/>
	</g>
	<g>
		<path class="st1" d="M24.22,1.93c11.43,0,20.72,9.3,20.72,20.72c0,4.31-1.32,8.45-3.83,11.99l-0.03,0.05l-16.84,25.6L7.74,35.21
			l-0.07-0.1C4.94,31.49,3.5,27.19,3.5,22.65C3.5,11.22,12.8,1.93,24.22,1.93 M24.22-0.07C11.7-0.07,1.5,10.12,1.5,22.65
			c0,4.97,1.58,9.7,4.56,13.66l18.17,27.62l18.51-28.14l0.01-0.02c2.73-3.85,4.18-8.39,4.18-13.12
			C46.94,10.12,36.75-0.07,24.22-0.07L24.22-0.07z"/>
	</g>
</g>
<g>
	<path class="st1" d="M23.97,14l4.93,5.81c0.1,0.12,0.06,0.25,0.04,0.29c-0.02,0.04-0.08,0.16-0.24,0.16h-0.8l2.58,3.06
		c0.1,0.12,0.06,0.25,0.04,0.29c-0.02,0.04-0.09,0.16-0.24,0.16h-0.79l2.65,3.06c0.11,0.12,0.06,0.25,0.04,0.29
		c-0.02,0.04-0.08,0.16-0.25,0.16h-7.12v4.58c0,0.45,0.36,0.81,0.81,0.81h7.01c0.15,0,0.27,0.12,0.27,0.27V34H15.1v-1.08
		c0-0.15,0.12-0.27,0.27-0.27h7.01c0.45,0,0.81-0.36,0.81-0.81v-4.58h-7.18c-0.16,0-0.23-0.12-0.25-0.16
		c-0.02-0.04-0.06-0.17,0.04-0.29l2.65-3.06h-0.79c-0.16,0-0.23-0.12-0.24-0.16c-0.02-0.04-0.06-0.17,0.04-0.29l2.58-3.06h-0.8
		c-0.16,0-0.23-0.12-0.24-0.16c-0.02-0.04-0.06-0.17,0.04-0.29L23.97,14 M23.97,10.91l-1.53,1.8l-4.92,5.81
		c-0.51,0.6-0.67,1.42-0.43,2.15l-1.14,1.35c-0.5,0.59-0.66,1.37-0.45,2.1l-1.2,1.38c-0.58,0.67-0.72,1.62-0.35,2.43
		c0.37,0.81,1.18,1.33,2.07,1.33h5.18v1.39h-5.82c-1.25,0-2.27,1.02-2.27,2.27V34v2h2H32.9h2v-2v-1.08c0-1.25-1.02-2.27-2.27-2.27
		h-5.82v-1.39h5.12c0.89,0,1.7-0.52,2.07-1.33c0.37-0.81,0.23-1.76-0.35-2.43l-1.2-1.38c0.21-0.73,0.05-1.51-0.45-2.1l-1.14-1.35
		c0.24-0.75,0.08-1.55-0.43-2.15l-4.93-5.81L23.97,10.91L23.97,10.91z"/>
</g>
</svg>
