<?xml version="1.0" encoding="utf-8"?>
<!-- Generator: Adobe Illustrator 20.0.0, SVG Export Plug-In . SVG Version: 6.00 Build 0)  -->
<svg version="1.1" id="DPP-PIN-MARKER" xmlns="http://www.w3.org/2000/svg" xmlns:xlink="http://www.w3.org/1999/xlink" x="0px"
	 y="0px" viewBox="0 0 48 64" style="enable-background:new 0 0 48 64;" width="24" height="36" xml:space="preserve">
<style type="text/css">
	.st0{fill:#FFFFFF;}
	.st1{fill:#F26223;}
</style>
<g>
	<g>
		<path class="st0" d="M6.9,35.76c-2.89-3.84-4.4-8.35-4.4-13.11c0-11.98,9.74-21.72,21.72-21.72c11.98,0,21.72,9.74,21.72,21.72
			c0,4.52-1.38,8.86-3.99,12.54L24.24,62.11L6.9,35.76z"/>
	</g>
	<g>
		<path class="st1" d="M24.22,1.93c11.43,0,20.72,9.3,20.72,20.72c0,4.31-1.32,8.45-3.83,11.99l-0.03,0.05l-16.84,25.6L7.74,35.21
			l-0.07-0.1C4.94,31.49,3.5,27.19,3.5,22.65C3.5,11.22,12.8,1.93,24.22,1.93 M24.22-0.07C11.7-0.07,1.5,10.12,1.5,22.65
			c0,4.97,1.58,9.7,4.56,13.66l18.17,27.62l18.51-28.14l0.01-0.02c2.73-3.85,4.18-8.39,4.18-13.12
			C46.94,10.12,36.75-0.07,24.22-0.07L24.22-0.07z"/>
	</g>
</g>
<g>
	<g>
		<path class="st1" d="M19.11,16.98c1.86,0,3.47,0.95,3.77,1.14l0.96-0.76l1.56,0.6c0.53-0.29,1.93-0.98,3.5-0.98
			c1.63,0,3.02,0.72,4.24,2.19c1.86,2.25,0.37,7.07-0.81,9.57c-1.88,3.99-4.2,6.67-5.03,7.11c-1.61,0-2.49,0.06-2.91,0.09
			c-0.09,0.01-0.16,0.01-0.19,0.01l-0.36,0c-0.05,0-0.12-0.01-0.21-0.01c-0.43-0.03-1.29-0.09-2.88-0.09
			c-0.91-0.55-3.24-3.59-5.06-7.47c-1.48-3.14-2.46-7.21-0.81-9.21C16.09,17.69,17.48,16.98,19.11,16.98 M27.11,10.05l-0.69,0.16
			c-0.11,0.03-2.82,0.68-3.54,2.65c-0.4,1.1-0.18,1.87,0.08,2.32c0.24,0.4,0.57,0.68,0.84,0.78c0.04,0.15,0.09,0.3,0.14,0.46
			c-0.55-0.34-2.49-1.44-4.83-1.44c-1.84,0-3.92,0.67-5.78,2.92c-2.76,3.33-0.54,9.04,0.54,11.34c1.98,4.21,5.09,8.62,6.66,8.62
			c2.23,0,3.02,0.1,3.28,0.1h0.38c0.26,0,1.05-0.1,3.28-0.1c1.57,0,4.68-4.05,6.66-8.26c1.08-2.3,3.3-8.36,0.54-11.69
			c-1.86-2.24-3.94-2.92-5.78-2.92c-1.97,0-3.66,0.78-4.47,1.23c-0.02-0.06-0.04-0.13-0.06-0.19c0.27-0.02,0.63-0.1,0.95-0.36
			c0.4-0.32,0.62-0.82,0.66-1.49c0.02-0.4,0.02-0.75,0.02-1.06c0-0.95-0.01-1.53,0.7-2.49L27.11,10.05L27.11,10.05z"/>
	</g>
</g>
</svg>
