<?xml version="1.0" standalone="no"?>
<!DOCTYPE svg PUBLIC "-//W3C//DTD SVG 1.1//EN" "http://www.w3.org/Graphics/SVG/1.1/DTD/svg11.dtd" >
<svg xmlns="http://www.w3.org/2000/svg" xmlns:xlink="http://www.w3.org/1999/xlink" version="1.1">
<metadata></metadata>
<defs>
<font id="roboto_monothin" horiz-adv-x="1229" >
<font-face units-per-em="2048" ascent="1638" descent="-410" />
<missing-glyph horiz-adv-x="500" />
<glyph horiz-adv-x="0" />
<glyph unicode="&#xd;" />
<glyph horiz-adv-x="0" />
<glyph horiz-adv-x="0" />
<glyph />
<glyph unicode="&#x9;" />
<glyph unicode=" " />
<glyph unicode="!" d="M543 49q0 22 17 39t39 17q23 0 40.5 -16.5t17.5 -39.5t-18 -39t-40 -16t-39 16t-17 39zM564 401v1055h55v-1055h-55z" />
<glyph unicode="&#x22;" d="M450 1122l8 268l-2 146h60l-2 -143l-11 -271h-53zM699 1122l9 268l-2 146h59l-2 -143l-11 -271h-53z" />
<glyph unicode="#" d="M61 410v52h281l95 524h-300v54h310l75 416h56l-76 -416h365l76 416h56l-76 -416h254v-54h-264l-96 -524h285v-52h-294l-75 -410h-56l75 410h-364l-74 -410h-56l74 410h-271zM398 462h363l96 524h-365z" />
<glyph unicode="$" d="M193 409h55q3 -92 35.5 -163t87.5 -118.5t128.5 -72t157.5 -23.5q64 0 128 20.5t115 60.5t82.5 98t32.5 133q1 82 -33 139.5t-87.5 98.5t-119 69t-128.5 51q-74 26 -146 57.5t-130 78t-93.5 112t-35.5 160.5q0 86 31.5 152.5t84.5 112.5t122 71.5t144 29.5v187h56v-187 q88 -5 157.5 -37.5t118 -88.5t75.5 -133t30 -170h-55q-2 83 -28 152t-72 119t-111 78t-145 28q-67 0 -130 -20t-112.5 -59t-80 -97.5t-31.5 -135.5q-1 -84 32 -142t86 -98.5t119 -67.5t131 -50q73 -26 145 -57.5t130 -78.5t94 -113t36 -159q0 -86 -31.5 -151.5t-83.5 -111.5 t-120 -71.5t-142 -30.5v-189h-56v187q-94 3 -173.5 32t-138 83.5t-93 133.5t-38.5 181z" />
<glyph unicode="%" d="M44 1099v77q1 52 16 106t45 97t74.5 70.5t104.5 27.5t104.5 -27.5t74 -71t44.5 -97t16 -105.5v-77q-1 -52 -16 -105t-44 -96t-73.5 -70.5t-103.5 -27.5q-60 0 -105 27t-75 69.5t-45.5 96t-16.5 106.5zM99 1099q1 -42 12 -85.5t33.5 -79t57.5 -57.5t84 -22q48 0 82.5 23 t56.5 58t32.5 78.5t11.5 84.5v77q-1 42 -11.5 85.5t-33 79t-57 58.5t-83.5 23q-48 0 -83 -23t-57.5 -59t-33 -79.5t-11.5 -84.5v-77zM273 162l622 1138l43 -31l-622 -1138zM702 279v78q1 52 16 105.5t45 96.5t74 70.5t104 27.5t104.5 -27t74.5 -70.5t45.5 -97t16.5 -105.5 v-78q-1 -52 -16 -105.5t-45 -96.5t-74 -70.5t-104 -27.5t-104.5 27t-74.5 70.5t-45.5 96.5t-16.5 106zM757 279q1 -42 11.5 -85.5t33 -79t57.5 -58t84 -22.5t83.5 22.5t56.5 58t32.5 79t11.5 85.5v78q-1 43 -11 86.5t-32.5 78.5t-57.5 57.5t-85 22.5t-84.5 -22.5 t-56.5 -57.5t-32 -79t-11 -86v-78z" />
<glyph unicode="&#x26;" d="M164 352q0 63 21 120.5t54.5 108.5t76.5 96.5t88 84.5l47 40q-31 40 -59 83t-49 88.5t-33.5 94t-12.5 99.5q0 63 20 119.5t57 98.5t90 67t119 25q56 0 104 -20t82.5 -55.5t53.5 -84t19 -104.5q0 -45 -16.5 -86.5t-42 -78.5t-57.5 -69.5t-64 -60.5l-141 -121l438 -534 q51 82 78 178t31 191h54q0 -113 -30.5 -218t-93.5 -198l177 -216h-65l-145 175q-40 -42 -84 -77.5t-93.5 -61.5t-103.5 -41t-113 -15q-84 0 -158 25t-129.5 73t-87.5 117t-32 157zM218 352q1 -75 29.5 -134t76.5 -100t112 -62.5t135 -21.5q58 0 109.5 13t96.5 37.5t83 59 t69 75.5l-417 506l-31 38l-46 -40q-39 -35 -78 -76.5t-70 -88t-50 -98.5t-19 -108zM352 1169q0 -47 11 -91.5t30 -86.5t44 -81t53 -75l147 125q28 24 54.5 52t47.5 59.5t34 67t13 74.5q0 44 -15 82t-42 66.5t-64.5 45t-81.5 16.5q-54 0 -97 -20.5t-72.5 -55.5t-45.5 -81 t-16 -97z" />
<glyph unicode="'" d="M538 1122l10 243l-1 171h56v-169l-15 -245h-50z" />
<glyph unicode="(" d="M406 566v20q0 87 9.5 183.5t29.5 194.5t51.5 193.5t77.5 181.5t107 159t139 125l19 -43q-72 -50 -128 -120t-98 -153t-71 -175t-47 -185.5t-26.5 -184.5t-8.5 -172v-26q1 -81 9 -172t26 -184.5t47 -185.5t71 -175t98 -153.5t128 -120.5l-19 -43q-79 53 -140.5 125.5 t-107.5 158.5t-77.5 181t-51 192.5t-28.5 194t-9 184.5z" />
<glyph unicode=")" d="M365 -427q72 50 128 120.5t98 153.5t71 175t47 185.5t26 184.5t9 172v26q-1 81 -9 172t-26 184.5t-47 185.5t-71 175t-98 153t-128 120l19 43q78 -52 139 -125t107 -159t77.5 -181.5t51.5 -193.5t29 -194.5t10 -183.5v-20q-1 -88 -9.5 -184.5t-28 -194t-51 -192.5 t-77.5 -181t-107.5 -158.5t-140.5 -125.5z" />
<glyph unicode="*" d="M208 1141l19 54l395 -133l2 394h59l-8 -395l383 143l22 -53l-392 -137l281 -317l-50 -33l-274 322l-258 -325l-47 32l264 324z" />
<glyph unicode="+" d="M119 649v53h462v504h55v-504h481v-53h-481v-503h-55v503h-462z" />
<glyph unicode="," d="M416 -223q42 57 65 116.5t24 131.5v134h54v-132q-2 -81 -27 -151.5t-79 -130.5z" />
<glyph unicode="-" horiz-adv-x="1230" d="M240 639v54h718v-54h-718z" />
<glyph unicode="." d="M589 52q0 25 18 42.5t40 17.5q23 0 41.5 -17.5t18.5 -42.5q0 -24 -18.5 -41t-41.5 -17q-22 0 -40 17t-18 41z" />
<glyph unicode="/" d="M306 -125l608 1581h59l-608 -1581h-59z" />
<glyph unicode="0" d="M172 594v268q0 70 10 143t31.5 141.5t56 128.5t83.5 105t114.5 71t149.5 26t149.5 -26t114.5 -70.5t83.5 -104.5t56.5 -128.5t31.5 -141.5t10.5 -144v-268q-1 -71 -10.5 -144t-31 -141t-55.5 -128t-83 -104.5t-114.5 -70.5t-149.5 -26q-83 0 -148.5 26t-115 70.5 t-84.5 104.5t-56.5 128t-32 141t-10.5 144zM226 596q0 -52 5.5 -105.5t18.5 -106.5l725 731q-18 63 -48 119t-73.5 98t-102 66.5t-134.5 24.5t-134 -24t-101.5 -65.5t-73 -97t-47.5 -118t-26.5 -128.5t-8.5 -128v-266zM265 328q19 -60 49 -113.5t73 -93.5t100.5 -63.5 t131.5 -23.5q75 0 133.5 24.5t101.5 66t72.5 97t47.5 118t26 128.5t9 128v266q-1 48 -5.5 97.5t-14.5 98.5z" />
<glyph unicode="1" d="M230 1187v60l462 209h19v-1456h-55v1386z" />
<glyph unicode="2" d="M112 1045q3 88 34.5 166.5t86.5 137t130.5 93t167.5 34.5q89 0 164 -26.5t130 -77.5t85.5 -123.5t30.5 -163.5q0 -78 -29.5 -151t-73.5 -141t-96.5 -130t-100.5 -117l-422 -492h800v-54h-871v54l477 550q42 49 88 104t84.5 116t63.5 126.5t25 134.5q0 79 -26.5 141.5 t-74 106t-112.5 66.5t-142 23q-81 0 -147 -30t-113.5 -81.5t-74.5 -120t-30 -145.5h-54z" />
<glyph unicode="3" d="M100 405h54q3 -85 37.5 -153.5t91 -117t130.5 -74.5t157 -26q80 0 149.5 23t120.5 67.5t80.5 109t29.5 148.5q0 92 -36.5 155t-96 102t-136 56.5t-156.5 18.5h-111v56h111q70 1 140.5 20.5t126.5 58.5t91 97.5t35 138.5q0 78 -27 140.5t-75 106t-113.5 67t-141.5 23.5 q-78 0 -145.5 -25t-117.5 -70.5t-80 -109.5t-33 -143h-54q3 90 37 164t92 127t135 82t166 29q88 0 163 -28t130.5 -79.5t86.5 -124.5t31 -163q0 -67 -23 -121.5t-61.5 -96.5t-90 -71.5t-109.5 -47.5q65 -15 122.5 -44t100.5 -73t68 -104t25 -137q0 -94 -34 -169 t-92.5 -127.5t-138 -81t-169.5 -28.5q-95 0 -179 30t-147.5 85.5t-102 134t-41.5 175.5z" />
<glyph unicode="4" d="M93 397v30l695 1029h65v-1005h252v-54h-252v-397h-54v397h-706zM177 451h622v940l-84 -138z" />
<glyph unicode="5" d="M232 383h55q9 -80 38.5 -144t77.5 -110t113.5 -70.5t147.5 -24.5q94 0 161.5 34.5t110.5 93t63 136t20 164.5q0 84 -26 156.5t-74.5 126.5t-117.5 85.5t-156 31.5q-92 1 -173 -26.5t-150 -89.5l-41 16l68 694h710v-53h-661l-59 -584q63 49 144 73t161 24q98 0 177 -35 t135.5 -96t87 -143.5t30.5 -177.5q0 -98 -24 -185.5t-74.5 -154t-128 -105.5t-183.5 -39q-92 0 -167.5 29.5t-131 82.5t-89.5 127t-44 164z" />
<glyph unicode="6" d="M158 492v168q1 108 20 210.5t56.5 193t94.5 166t134 130t173.5 85t214.5 31.5h19v-54h-19q-153 -1 -269 -56.5t-195.5 -149.5t-123 -219t-50.5 -266q30 52 74 94t97.5 71.5t114 45t123.5 15.5q101 0 179.5 -39t132 -105t81.5 -152.5t28 -180.5q0 -90 -26.5 -179.5 t-78.5 -160.5t-129 -115.5t-177 -44.5q-109 0 -196.5 41t-148.5 111.5t-94.5 163.5t-34.5 196zM212 493q1 -92 30 -175.5t83 -147t131.5 -101t175.5 -36.5q88 1 154.5 41.5t111.5 104.5t68 143.5t23 157.5q0 85 -24.5 161.5t-72 134.5t-117.5 92.5t-160 34.5 q-67 0 -132.5 -20.5t-120.5 -58.5t-95 -91t-55 -119v-121z" />
<glyph unicode="7" d="M138 1402v54h930v-34l-641 -1422h-55l634 1402h-868z" />
<glyph unicode="8" d="M177 379q0 72 25 132t68 106t100 78.5t121 49.5q-57 18 -106.5 48.5t-86.5 74t-58.5 98t-21.5 120.5q0 90 32.5 162.5t89.5 123t133.5 77.5t163.5 27q86 0 163.5 -27t135.5 -77.5t92 -123t34 -162.5q0 -65 -22 -120t-59.5 -98t-88 -74t-107.5 -49q64 -17 122 -49.5 t101.5 -78.5t69.5 -106t26 -132q0 -98 -38 -172.5t-102.5 -125t-148.5 -76t-174 -25.5q-91 0 -175 25.5t-148.5 75.5t-102.5 124.5t-38 173.5zM231 374q0 -85 35 -149t93 -106.5t131.5 -63.5t150.5 -21t150.5 21.5t130.5 64t92 106.5t35 148q0 83 -35.5 147t-93.5 108 t-131.5 66.5t-149.5 22.5t-149 -22.5t-130.5 -66t-93 -108t-35.5 -147.5zM272 1091q0 -77 31 -136t82 -100t117 -62t137 -21q70 0 136.5 21.5t118 62.5t83 100t31.5 135q0 75 -31.5 136.5t-83 104.5t-118.5 66.5t-138 23.5q-73 0 -139 -23t-116.5 -65.5t-80 -104 t-29.5 -138.5z" />
<glyph unicode="9" d="M162 958q0 93 28 185.5t82.5 166t134.5 119.5t183 47q83 0 149.5 -21.5t117.5 -61t87.5 -93t60.5 -117.5t35 -135.5t12 -144.5v-163q-1 -159 -40.5 -297.5t-120.5 -240.5t-205 -161.5t-295 -60.5h-34l2 54h32q154 1 267.5 54t189 144.5t112.5 216t38 269.5v16 q-27 -59 -68.5 -108t-95 -84.5t-117 -54.5t-135.5 -19q-99 0 -177 42.5t-132 111.5t-82.5 157t-28.5 179zM216 958q0 -80 24.5 -158t71 -139.5t115 -100t155.5 -38.5q73 0 140.5 24t123 66.5t95 101.5t57.5 129v59q-1 97 -22.5 190.5t-69.5 167t-124.5 118.5t-187.5 44 q-60 -1 -112 -20t-94 -52.5t-74 -78.5t-54 -96.5t-33 -107t-11 -109.5z" />
<glyph unicode=":" d="M647 52q0 25 18 42.5t40 17.5q23 0 41.5 -17.5t18.5 -42.5q0 -24 -18.5 -41t-41.5 -17q-22 0 -40 17t-18 41zM647 928q0 25 18 42.5t40 17.5q23 0 41.5 -17.5t18.5 -42.5q0 -24 -18.5 -41t-41.5 -17q-22 0 -40 17t-18 41z" />
<glyph unicode=";" d="M570 -223q42 57 65 116.5t24 131.5v134h54v-132q-2 -81 -27 -151.5t-79 -130.5zM648 928q0 25 18 42.5t40 17.5q23 0 41.5 -17.5t18.5 -42.5q0 -24 -18.5 -41t-41.5 -17q-22 0 -40 17t-18 41z" />
<glyph unicode="&#x3c;" d="M162 641v50l866 378v-58l-792 -345l792 -345v-59z" />
<glyph unicode="=" d="M175 436v54h891v-54h-891zM175 843v54h891v-54h-891z" />
<glyph unicode="&#x3e;" d="M188 265l1 59l784 344l-784 345l-1 59l865 -378v-50z" />
<glyph unicode="?" d="M249 1116q5 81 35.5 147t81.5 113.5t119.5 73.5t149.5 26q80 0 146.5 -27t114.5 -76t74.5 -116t26.5 -147q0 -66 -18 -123.5t-49.5 -108t-74 -95.5t-91.5 -85q-72 -60 -105.5 -132t-34.5 -166h-55q3 55 14 101t31.5 87t51 78t71.5 74q43 39 81 79t66 84t43.5 95.5 t15.5 113.5q0 69 -22.5 126t-62.5 98.5t-97 64t-126 22.5q-70 0 -129.5 -21.5t-103 -61.5t-69.5 -97t-29 -127h-55zM544 49q0 23 17.5 39.5t39.5 16.5t40 -16.5t18 -39.5t-18 -39t-40 -16t-39.5 16t-17.5 39z" />
<glyph unicode="@" d="M55 677q3 103 22 202t54.5 187t88 162t122.5 128t158 84t194 30q104 0 180.5 -28.5t130.5 -78.5t87.5 -117.5t52 -146t24 -165t3.5 -172.5q-1 -37 -6 -87t-15.5 -104t-29 -106t-46 -93.5t-66 -67t-90.5 -25.5q-44 0 -74 19t-49 49t-29 67t-13 74q-18 -39 -40.5 -76.5 t-50.5 -67t-62 -47.5t-73 -18q-48 0 -81.5 23t-55 59.5t-33 82.5t-16 92.5t-4 88t2.5 70.5q7 87 30 172t64 152t102.5 108t145.5 40q31 0 55 -8t44.5 -20.5t38.5 -28.5t38 -33l-2 -2l-51 -503q-1 -27 0 -67.5t11.5 -78.5t34.5 -65t69 -27q42 0 72.5 24t52 62t35 85.5t21 95 t11 90t4.5 71.5q5 143 -16 263t-72 206t-134.5 134t-203.5 48q-70 0 -139 -20t-132.5 -60.5t-118 -101.5t-96 -142.5t-67 -184.5t-29.5 -227q-3 -72 3.5 -147.5t26.5 -146t57 -133t95.5 -109t141 -73.5t195.5 -27q33 0 69.5 6.5t73.5 17.5t70.5 25.5t60.5 30.5l22 -46 q-28 -20 -65 -36t-77.5 -28t-81 -18.5t-75.5 -6.5q-123 0 -214 28t-155 77.5t-104.5 116.5t-62.5 144t-29.5 160t-4.5 165zM391 640q-1 -35 1.5 -75t9.5 -81.5t22.5 -75t40 -54.5t61.5 -21q48 0 84.5 31t64 76.5t48 98t36.5 94.5l46 419q-13 12 -25.5 23t-27 19t-32.5 13 t-40 5q-53 1 -93.5 -19t-71 -52.5t-52 -75.5t-35.5 -89.5t-22 -93.5t-12 -87q-2 -20 -3 -55z" />
<glyph unicode="A" d="M122 0l477 1456h62l477 -1456h-56l-143 435h-619l-142 -435h-56zM337 489h585l-292 893z" />
<glyph unicode="B" d="M217 0v1456h362q87 -1 168.5 -23.5t144.5 -68t101 -115.5t38 -166q0 -65 -17.5 -116t-50 -90.5t-78 -68t-100.5 -49.5l1 -5q64 -14 120 -45t97.5 -77t65.5 -104.5t24 -126.5v-5q-1 -89 -33 -160q-34 -73 -92 -125t-136 -80.5t-165 -30.5h-450zM270 54h397q75 1 143 25.5 t119 68.5t81 108q29 61 29 138v5q0 75 -31 134t-81.5 99.5t-115.5 62.5t-135 24h-406v-665zM270 773h329q73 1 141 19.5t120.5 57t84 97t31.5 140.5q0 84 -34 143.5t-90 97t-127.5 55.5t-145.5 19h-309v-629z" />
<glyph unicode="C" d="M143 619v218q1 71 13 146.5t37 146t63 133.5t90 110t119 74.5t151 28.5h5q99 0 179 -36q82 -36 141 -99t94.5 -148t46.5 -181h-53q-14 84 -45.5 159t-82.5 131t-121 88q-68 32 -158 32h-6q-75 -1 -135.5 -26.5t-106.5 -69t-79.5 -101.5t-55 -122.5t-31.5 -132.5t-11 -131 v-220q1 -64 11 -132t31.5 -132.5t54.5 -122.5t79.5 -102t106.5 -70t136 -26h6q91 0 159 32q71 32 121.5 88t81.5 131.5t45 160.5h53q-11 -96 -46.5 -181t-94.5 -148.5t-141 -100.5q-79 -36 -179 -36h-5q-84 0 -151 28t-119.5 75t-90 110t-62.5 134t-37 145.5t-13 146.5z" />
<glyph unicode="D" d="M200 0v1456h366q85 -2 158.5 -28t133.5 -70.5t106.5 -105t78.5 -130.5t49 -148t18 -157v-178q-1 -79 -18 -157t-49 -148t-78.5 -130.5t-106.5 -105t-133.5 -70.5t-158.5 -28h-366zM252 54h314q78 2 144 26t120 65t96 96.5t70.5 120t43.5 135t16 142.5v181q-2 107 -35 210 t-95.5 185t-153 133t-206.5 54h-314v-1348z" />
<glyph unicode="E" d="M220 0v1456h825v-54h-772v-626h677v-54h-677v-668h772v-54h-825z" />
<glyph unicode="F" d="M230 0v1456h827v-54h-775v-630h682v-56h-682v-716h-52z" />
<glyph unicode="G" d="M135 620v238q1 72 14.5 145.5t40 142t66.5 128.5t93.5 105t121 71t149.5 26q93 0 171.5 -31t138 -86.5t97.5 -131t50 -165.5h-53q-17 78 -51 144t-84.5 114t-117.5 75t-151 27q-74 0 -134.5 -24t-108 -65t-82.5 -96t-58 -117.5t-35 -129t-13 -130.5v-240q1 -67 13 -136.5 t36 -134t60 -122t85.5 -100t112 -67.5t139.5 -26h13q46 0 94 6q55 7 107 24t97.5 45.5t79.5 71.5v424h-394v55h446l1 -504q-40 -49 -91.5 -82.5t-109.5 -54.5t-120 -30t-123 -9q-85 1 -154.5 28t-124.5 73t-96 108t-68.5 133t-41.5 147t-15 151z" />
<glyph unicode="H" d="M178 0v1456h51v-680h772v680h51v-1456h-51v722h-772v-722h-51z" />
<glyph unicode="I" d="M212 0v54h367v1346h-367v56h806v-56h-381v-1346h381v-54h-806z" />
<glyph unicode="J" d="M125 401h55q4 -84 32.5 -152t78 -116t119.5 -74q66 -25 148 -25h6q86 1 156 33.5t120 88t78 129.5t30 157l-1 1014h55v-1014q-2 -95 -34 -178.5t-89 -146.5t-137 -100t-178 -37q-97 0 -175.5 30t-135.5 85.5t-89.5 133t-38.5 172.5z" />
<glyph unicode="K" d="M229 0v1456h52v-839l217 230l557 609h74l-597 -654l643 -802h-67l-614 764l-213 -211v-553h-52z" />
<glyph unicode="L" d="M242 0v1456h55v-1402h770v-54h-825z" />
<glyph unicode="M" d="M186 0v1456h79l349 -915l369 915h84v-1456h-54v708l2 675l-377 -913h-50l-349 903l1 -665v-708h-54z" />
<glyph unicode="N" d="M180 0v1456h50l771 -1361l-2 1361h52v-1456h-50l-772 1364l2 -1364h-51z" />
<glyph unicode="O" d="M142 619v218q1 71 13 146t36.5 146t62 134t90 110.5t119.5 75t151 27.5t151 -27.5t119.5 -75t90 -110.5t62 -134t36.5 -146t13 -146v-218q-1 -71 -13 -146t-36 -146t-61.5 -134t-89.5 -110.5t-119.5 -75t-150.5 -27.5t-150.5 27.5t-120 75t-90.5 110.5t-62.5 134t-37 146 t-13.5 146zM197 619q1 -64 11 -132t31 -133t54 -123t79.5 -102t107 -69.5t136.5 -25.5t136.5 25.5t106.5 69.5t79 102t54 123t30.5 133t10.5 132v220q-1 64 -11 132t-31 132.5t-54 122.5t-79.5 101.5t-107 69t-136.5 25.5t-136 -25.5t-106.5 -69t-79 -101.5t-53.5 -123 t-31 -133t-11 -131v-220z" />
<glyph unicode="P" d="M242 0v1456h444q93 -2 173 -32.5t139 -86t92.5 -133t33.5 -173.5t-34 -172t-93 -130t-139 -83.5t-172 -30.5h-390v-615h-54zM296 669h390q79 1 149 26.5t122 72t82.5 112.5t30.5 149q0 84 -29.5 152t-81 116.5t-122 75.5t-151.5 29h-390v-733z" />
<glyph unicode="Q" d="M119 619v218q1 74 14.5 150.5t40.5 147.5t68 133t96.5 108.5t125.5 73t155 26.5t155 -26.5t125.5 -73t96.5 -108.5t68.5 -133t41.5 -147.5t15 -150.5v-218q-1 -84 -18.5 -170.5t-53 -165t-88 -143t-124.5 -105.5l247 -263l-38 -35l-261 273q-37 -14 -78 -22t-86 -8 q-85 0 -155.5 26.5t-126 73t-96.5 108.5t-68.5 133t-41 147t-14.5 151zM173 619q1 -67 13 -136.5t35.5 -134.5t60 -122.5t86 -100t112.5 -67t141 -24.5t141 24.5t112.5 67t85.5 100t59.5 122.5t35 134.5t12.5 136.5v220q-1 67 -13 136.5t-35.5 134t-60 121.5t-86 99.5 t-112.5 67t-141 24.5t-140.5 -24.5t-112 -67t-85.5 -99.5t-59.5 -122t-35.5 -134t-13 -136v-220z" />
<glyph unicode="R" d="M227 0v1456h395q90 -2 170 -32.5t139.5 -85.5t94 -131.5t34.5 -170.5q0 -76 -22.5 -137.5t-62.5 -110.5t-95.5 -86t-121.5 -63l357 -625v-14h-55l-353 623h-428v-623h-52zM279 677h387q74 2 136.5 31t107.5 77.5t70.5 113t25.5 137.5q0 83 -30.5 150t-82.5 114.5 t-122.5 73.5t-149.5 28h-342v-725z" />
<glyph unicode="S" d="M156 391h53q9 -89 46.5 -155.5t96 -111.5t134 -67.5t161.5 -22.5q73 0 144.5 18.5t127.5 56.5t90.5 97.5t34.5 146.5q0 83 -37 143q-38 60 -97 102t-131.5 70.5t-141.5 49.5q-50 15 -102 34t-101 43t-92 54.5t-75 70.5q-33 38 -51 88q-18 47 -17 106v6q0 88 39.5 155 t102.5 111.5t141.5 67t158.5 22.5q91 0 170.5 -29.5t138.5 -82.5t94.5 -129t39.5 -169h-53q-8 79 -39.5 144.5t-82.5 112.5t-119 73t-149 26q-68 0 -137 -18t-125 -55t-91 -93.5t-36 -133.5v-6q0 -51 16 -93q18 -44 48 -78.5t69.5 -61.5t84.5 -47.5t91.5 -36.5t90.5 -29 q78 -23 157.5 -56t144 -81.5t105 -117.5t40.5 -164q0 -94 -39 -163.5t-102.5 -115.5t-144.5 -69t-166 -23q-95 0 -182 26.5t-154 78.5t-109 128.5t-46 177.5z" />
<glyph unicode="T" d="M112 1402v54h1011v-54h-479v-1402h-54l2 1402h-480z" />
<glyph unicode="U" d="M176 469l1 987h51l1 -987q1 -85 27.5 -163.5t76 -139t121 -96.5t162.5 -36t162 36.5t120 97t75 139t28 162.5l1 987h52l1 -987q-2 -97 -31.5 -185.5t-86 -156t-137.5 -107.5t-184 -40q-104 0 -185 40t-137 107.5t-86.5 156t-31.5 185.5z" />
<glyph unicode="V" d="M106 1456h56l426 -1314l22 -78l22 78l426 1314h57l-474 -1456h-62z" />
<glyph unicode="W" d="M97 1456h50l182 -1126l28 -184l30 184l225 1123v3h50l-1 -3l224 -1123l29 -186l30 186l181 1126h49l-233 -1456h-50v3l-235 1211l-20 106l-19 -106l-238 -1211l1 -3h-50z" />
<glyph unicode="X" d="M128 0l472 743l-455 713h65l423 -671l424 671h65l-455 -713l472 -743h-63l-443 701l-443 -701h-62z" />
<glyph unicode="Y" d="M90 1456h67l440 -854l446 854h63l-482 -903v-553h-52l-1 553z" />
<glyph unicode="Z" d="M143 44l801 1359h-766v53h836l1 -38l-803 -1364h829v-54h-897z" />
<glyph unicode="[" d="M478 -312v1976h296v-54h-241v-1868h241v-54h-296z" />
<glyph unicode="\" d="M282 1456h58l608 -1581h-58z" />
<glyph unicode="]" d="M455 -258h239v1868h-239v54h295v-1976h-295v54z" />
<glyph unicode="^" d="M260 659l329 797h52l329 -797h-61l-294 723l-296 -723h-59z" />
<glyph unicode="_" d="M191 0h846v-54h-846v54z" />
<glyph unicode="`" d="M492 1516h65l180 -266h-58z" />
<glyph unicode="a" d="M184 274q0 97 47 160.5t121.5 101t166.5 52.5t182 16h267v158q-2 73 -30 127t-74.5 89t-108 52.5t-129.5 17.5q-60 0 -122.5 -16t-113.5 -48.5t-85 -82t-37 -117.5l-54 2q4 79 42.5 138t97 98.5t130 59.5t142.5 20q80 0 151.5 -21.5t125.5 -64t85.5 -107t33.5 -149.5 v-542q1 -55 10 -105t19 -104l1 -9h-63q-12 51 -16 101t-5 101q-35 -55 -83.5 -97t-105.5 -69.5t-121 -41.5t-131 -14q-65 0 -127 19.5t-110 56.5t-77 92t-29 126zM238 270q0 -57 26 -101.5t67.5 -74.5t93 -45.5t102.5 -15.5h8q67 -1 129 15q66 16 124 49.5t104 82.5t76 113 v256h-264q-51 -1 -105.5 -6t-106.5 -17t-98.5 -32t-81 -51t-54.5 -73q-20 -41 -20 -95v-5z" />
<glyph unicode="b" d="M224 0v1536h54v-638q27 46 65 84t83 64.5t95.5 41t103.5 14.5q79 0 141.5 -23t109.5 -62.5t80.5 -93.5t55 -115t31 -126.5t10.5 -129.5v-21q-1 -63 -11 -128.5t-31 -126.5t-54.5 -115t-81 -94t-109 -63.5t-139.5 -23.5q-49 0 -99 12t-96.5 35t-86 56.5t-67.5 76.5v-160 h-54zM278 261q19 -55 56.5 -97.5t84.5 -71.5t101 -43.5t108 -14.5q70 0 125 21.5t95.5 58.5t69 86t46 104t25 113t8.5 114v21q-1 55 -9 113.5t-25.5 113.5t-45.5 104t-69.5 85.5t-96 58t-125.5 21.5q-60 0 -115 -19t-100.5 -54t-80 -83.5t-52.5 -106.5v-524z" />
<glyph unicode="c" d="M179 520v42q1 102 28.5 199.5t83 173t139.5 121.5t198 46q85 0 157.5 -27t126.5 -76.5t87 -119t40 -154.5h-54q-6 73 -35 132.5t-76.5 102t-110 65.5t-135.5 23q-103 0 -177 -41.5t-122.5 -110t-71.5 -156t-24 -178.5v-42q1 -93 24 -180t71.5 -155t123 -109.5 t178.5 -41.5q69 0 130.5 19t109 56.5t77.5 92.5t38 126h54q-8 -81 -43 -145.5t-89.5 -109.5t-126 -69t-150.5 -24q-114 0 -198.5 46t-140.5 121.5t-83.5 172.5t-28.5 200z" />
<glyph unicode="d" d="M176 531v21q0 64 10 129.5t31.5 126.5t55 115t80.5 93.5t109.5 62.5t141.5 23q53 0 103.5 -14.5t95.5 -41.5t83 -65t65 -85v640h54v-1536h-54v162q-28 -44 -67.5 -77.5t-86 -57t-96.5 -35.5t-99 -12q-78 0 -140 23.5t-109 63.5t-80.5 94t-54.5 115t-31.5 126.5 t-10.5 128.5zM232 531q0 -55 8 -113.5t25.5 -113.5t46 -104t69 -86t95 -58.5t125.5 -21.5q53 0 106.5 14.5t100.5 42.5t84.5 69.5t58.5 94.5v535q-19 58 -54 105.5t-80.5 81.5t-100 52.5t-113.5 18.5q-71 0 -125.5 -21.5t-96 -58t-69.5 -85.5t-45.5 -104t-26 -113.5 t-8.5 -113.5v-21z" />
<glyph unicode="e" d="M164 518v44q1 101 34 198t94 173t148 122.5t197 46.5q98 0 177 -37t134.5 -100.5t85.5 -147.5t31 -177v-63h-847v-15v-44q1 -93 33 -180.5t89.5 -155t138 -108t179.5 -41.5h5q99 0 181 35q84 36 149 114l39 -27q-69 -90 -165.5 -132.5t-208.5 -42.5q-111 0 -201.5 44.5 t-155 119.5t-100.5 172t-37 202zM223 631h788v13q0 80 -27.5 153t-76.5 129t-118 89t-152 33q-90 0 -162 -34.5t-124.5 -92.5t-85 -133.5t-42.5 -156.5z" />
<glyph unicode="f" horiz-adv-x="1230" d="M210 1027v55h293l1 95q2 118 39 192t96 115.5t134 57t153 15.5q48 0 94 -3.5t92 -13.5l-8 -52q-44 9 -87.5 12t-88.5 3q-43 0 -87 -4.5t-84.5 -17t-76 -35t-62 -59t-42.5 -88t-17 -122.5v-95h445v-55h-445l4 -1027h-63l3 1027h-293z" />
<glyph unicode="g" d="M178 531v21q0 64 10 129.5t31.5 126.5t55 115t80.5 93.5t109.5 62.5t141.5 23q52 0 102.5 -14.5t95.5 -41.5t83 -65t65 -84v185h55v-1067q-1 -93 -28 -175t-79 -143.5t-127.5 -97t-174.5 -35.5q-109 0 -198.5 48.5t-155.5 133.5l38 36q61 -74 138 -119.5t176 -45.5 q88 0 154.5 31t111 85t67 126.5t23.5 155.5v145q-28 -43 -67.5 -76.5t-85.5 -56.5t-96 -35t-99 -12q-78 0 -139.5 23.5t-109 63.5t-81 94t-54.5 115t-31.5 126.5t-10.5 128.5zM233 531q1 -55 9 -113.5t25.5 -113.5t45.5 -104t69 -86t95.5 -58.5t125.5 -21.5q54 0 108 15 t101.5 44t84 71.5t55.5 97.5v521q-18 59 -52 107.5t-79.5 83.5t-100.5 54.5t-115 19.5q-71 0 -126 -21.5t-96 -58t-69.5 -85t-46 -103.5t-26 -113.5t-8.5 -114.5v-21z" />
<glyph unicode="h" d="M213 0v1536h55v-715q26 60 66 111.5t91.5 89t113.5 59t133 21.5q93 0 161 -30t112 -83.5t65.5 -127.5t22.5 -161v-700h-55v700q-1 76 -18.5 140.5t-55 111t-95.5 72.5q-56 25 -134 25h-6q-73 -1 -139 -29t-119.5 -75t-90.5 -110t-52 -133v-702h-55z" />
<glyph unicode="i" d="M239 0v54h397v974h-397v54h451v-1028h384v-54h-835zM590 1390q0 14 3 27.5t11 24t21.5 16.5t34.5 6q20 0 33.5 -6t22 -16.5t12 -24t3.5 -27.5q0 -27 -15.5 -49t-55.5 -22q-41 0 -55.5 22t-14.5 49z" />
<glyph unicode="j" d="M179 -420l4 48q19 -3 46.5 -5.5t55 -4t53 -2t41.5 -0.5q68 0 130.5 20.5t110 67t75.5 120.5t28 182v1022h-420v54h474v-1076q0 -99 -26.5 -181t-77.5 -140t-124 -90t-166 -32q-29 0 -54 1t-49 3t-48.5 5t-52.5 8zM670 1391q0 14 3 27.5t11.5 24t22 16.5t34.5 6 q20 0 33.5 -6t22 -16.5t12 -24t3.5 -27.5q0 -27 -15.5 -49t-55.5 -22q-42 0 -56.5 22t-14.5 49z" />
<glyph unicode="k" d="M257 0v1536h55v-1031l137 122l524 455h80l-528 -460l561 -622h-72l-531 586l-4 -3l-167 -136v-447h-55z" />
<glyph unicode="l" d="M239 0v54h401v1428h-401v54h455v-1482h380v-54h-835z" />
<glyph unicode="m" d="M86 0v1082h49l2 -142q31 70 92.5 115t163.5 47q54 0 93.5 -13.5t67.5 -36.5t45 -53.5t26 -63.5q16 33 41 63t59.5 53t77.5 37t95 14q53 0 92.5 -13.5t66.5 -36.5t44 -53.5t27 -64t13.5 -68.5t3.5 -66l-2 -800h-49l-2 800q0 35 -5.5 79t-25.5 82.5t-59 64.5q-36 24 -96 23 h-10q-66 -2 -110.5 -22t-73.5 -51t-45.5 -68t-27.5 -72q0 -5 0.5 -8.5t0.5 -7.5l-2 -820h-49l-2 820q-1 35 -7 75.5t-26 74.5q-22 36 -60 58q-37 22 -98 21h-5q-70 -2 -114.5 -26t-72.5 -61.5t-42.5 -83.5t-24.5 -90l-2 -788h-49z" />
<glyph unicode="n" d="M212 0v1082h55v-260q26 60 65.5 111.5t91 88.5t113.5 58.5t133 21.5q93 0 160.5 -30t111.5 -83.5t65 -127.5t22 -161l1 -700h-55v700q-1 76 -18.5 140.5t-54.5 111t-95 72.5q-56 25 -134 25h-6q-73 -1 -139 -29t-119 -75t-90 -110t-52 -133v-702h-55z" />
<glyph unicode="o" d="M141 520v42q1 104 33 201.5t92 172.5t147.5 120.5t200.5 45.5t200.5 -45t148 -120t92.5 -172.5t33 -202.5v-42q-1 -104 -32.5 -201.5t-91.5 -172.5t-147.5 -120.5t-200.5 -45.5t-201 45t-148.5 120t-92.5 172.5t-33 202.5zM195 520q1 -92 29.5 -179.5t82 -155.5 t131.5 -109.5t178 -41.5t177 41.5t130.5 110t81.5 155.5t29 179v42q-1 91 -29.5 178.5t-82 155.5t-131.5 110t-177 42t-176.5 -42t-131 -110t-82 -155.5t-29.5 -178.5v-42z" />
<glyph unicode="p" d="M220 -416v1498h54v-180q27 46 65.5 83t83.5 63t95.5 40t102.5 14q79 0 141.5 -23t109.5 -62.5t80.5 -93.5t55 -115t31 -126.5t10.5 -129.5v-21q0 -63 -10.5 -128.5t-31.5 -126.5t-54.5 -115t-80.5 -94t-109 -63.5t-140 -23.5q-49 0 -99 12t-96 34.5t-86 55.5t-68 76v-574 h-54zM274 256q20 -54 57.5 -95.5t84.5 -69.5t101 -42.5t107 -14.5q70 0 125 21.5t96 58.5t69 86t45.5 104t25.5 113t9 114v21q0 56 -8.5 114.5t-26 113.5t-46 103.5t-69.5 85t-96 58t-126 21.5q-59 0 -113.5 -18.5t-100.5 -52.5t-80.5 -81.5t-53.5 -105.5v-534z" />
<glyph unicode="q" d="M177 531v21q0 64 10 129.5t31.5 126.5t55 115t80.5 93.5t109.5 62.5t141.5 23q52 0 102.5 -14t95.5 -40t83 -63t66 -83v180h54v-1498h-54v573q-29 -42 -69 -75t-86 -55.5t-96 -34.5t-98 -12q-78 0 -139.5 23.5t-109 63.5t-81 94t-54.5 115t-31.5 126.5t-10.5 128.5z M233 531q0 -55 8 -113.5t25.5 -113.5t46 -104t69 -86t95 -58.5t125.5 -21.5q53 0 106.5 14.5t100.5 42.5t84.5 69.5t58.5 94.5v536q-20 57 -55 104t-81 81t-100.5 53t-111.5 19q-71 0 -125.5 -21.5t-96 -58t-69.5 -85.5t-45.5 -104t-26 -113.5t-8.5 -113.5v-21z" />
<glyph unicode="r" d="M390 0v1082h53l6 -188v-69q60 133 185 205q123 72 296 72h5q36 0 72 -5t69 -11l-6 -51q-29 5 -64.5 9.5t-70.5 4.5q-83 0 -161.5 -18.5t-143 -61t-112 -111t-69.5 -167.5l3 -691h-62z" />
<glyph unicode="s" d="M204 275h55q8 -71 46.5 -117.5t93 -74t119.5 -38.5t126 -11q34 0 74 5t79.5 16.5t76.5 29t65.5 43.5t45.5 59.5t18 77.5q0 44 -17 79.5t-46 62.5t-66.5 47.5t-78.5 35t-81 25t-74 17.5q-41 9 -87 19.5t-90 26t-84.5 36.5t-70.5 51q-30 31 -48 71q-17 38 -17 87v6 q0 50 18 89.5t47.5 70t69 52t83 35t88.5 20t86 6.5q76 0 149 -17t131.5 -54t96.5 -95.5t44 -142.5h-56q-2 69 -37 117.5t-88.5 79t-117 44.5t-122.5 14q-50 0 -108.5 -10.5t-109.5 -35.5t-85 -66.5t-35 -104.5v-5q0 -43 16 -75q17 -34 45.5 -59.5t66 -43.5t77.5 -31 t80.5 -22t74.5 -16q64 -14 134.5 -35t130 -56t97.5 -89t38 -135q0 -53 -19 -94.5t-50 -73t-72.5 -54t-87 -36t-93 -20t-91.5 -6.5q-48 0 -98 6.5t-97.5 21t-90 37.5t-75.5 55.5t-54 76t-25 98.5z" />
<glyph unicode="t" d="M197 1027v55h318v292h58l-1 -292h390v-55h-390v-768q2 -63 22.5 -105.5t56.5 -69t84.5 -38.5t106.5 -12q81 0 159 9l11 -51q-41 -8 -82 -10t-83 -2q-72 0 -132 14.5t-104 47.5t-69 86t-27 131v768h-318z" />
<glyph unicode="u" d="M216 395v687h54v-689q1 -75 19 -140t55.5 -114t95.5 -77t139 -28q78 0 143 20.5t114.5 59t82 94t46.5 125.5l-1 749h56v-1082h-56l1 193q-52 -100 -148.5 -156.5t-235.5 -56.5q-94 0 -162.5 32t-113 87.5t-66.5 131.5t-23 164z" />
<glyph unicode="v" d="M116 1082h61l435 -1003l435 1003h61l-469 -1082h-55z" />
<glyph unicode="w" d="M77 1082h57l176 -769l42 -213l53 213l193 769h50l193 -769l52 -213l43 213l176 769h57l-249 -1082h-49l-213 813l-35 172l-38 -172l-210 -813h-49z" />
<glyph unicode="x" d="M150 0l443 555l-421 527h72l384 -480l383 480h72l-421 -527l443 -555h-70l-408 508l-406 -508h-71z" />
<glyph unicode="y" d="M84 1082h63l476 -1008l13 30l440 978h65l-569 -1262q-25 -56 -55.5 -102.5t-70 -81t-90.5 -54t-117 -19.5q-44 0 -90 11l-2 51q20 -3 41 -6t42 -3q54 0 98 15.5t79 44t62 68t48 86.5l75 172z" />
<glyph unicode="z" d="M137 0l1 44l825 983h-790v55h870l-1 -48l-825 -980h894v-54h-974z" />
<glyph unicode="{" d="M338 566v20l1 23q130 5 203.5 74t75.5 202v247q2 180 92.5 294.5t258.5 170.5l16 -45q-149 -50 -230 -156t-83 -264v-247q-2 -131 -69 -208.5t-180 -100.5q113 -24 180 -102.5t69 -208.5v-245q1 -80 23.5 -145t63.5 -116.5t99.5 -90t131.5 -63.5l-20 -46 q-169 55 -259.5 168t-92.5 293v245q-2 134 -75 203.5t-204 74.5z" />
<glyph unicode="|" d="M588 -270v1726h54v-1726h-54z" />
<glyph unicode="}" d="M338 -395q73 25 131 63.5t99 90.5t63.5 117t23.5 144v245q2 131 68.5 209t180.5 102q-113 23 -180 100.5t-69 208.5v247q-2 158 -82.5 264t-229.5 156l15 45q169 -56 259 -170.5t92 -294.5v-247q2 -133 75.5 -202t203.5 -74v-23h1l-1 -10l1 -10h-1v-23q-131 -5 -204 -75 t-75 -203v-245q-2 -180 -92.5 -293t-259.5 -168z" />
<glyph unicode="~" d="M71 462q2 61 18.5 117.5t49.5 99.5t82.5 69t117.5 26q46 0 86.5 -12.5t77 -33.5t70.5 -48t66 -56q27 -24 55 -47t58.5 -41t64 -29t71.5 -11q56 0 95.5 21.5t65 57t38 82t14.5 96.5l56 -1q-2 -60 -19.5 -116t-50.5 -98.5t-83 -68.5t-116 -26q-46 0 -86 12.5t-76 33.5 t-69.5 48t-66.5 56q-27 24 -55.5 47t-59 41t-64 28.5t-72.5 10.5q-57 0 -96.5 -21.5t-65 -57t-37.5 -82t-14 -97.5h-55z" />
<glyph unicode="&#xa0;" />
<glyph unicode="&#xa1;" d="M556 1048q0 23 17.5 39t39.5 16t39.5 -16t17.5 -39q0 -22 -17 -39t-40 -17q-22 0 -39.5 16.5t-17.5 39.5zM594 -359v1055h55v-1055h-55z" />
<glyph unicode="&#xa2;" d="M184 520v42q1 101 27.5 196.5t80.5 170.5t135.5 122t191.5 50v217h56v-218q77 -7 142 -36.5t113 -78.5t78 -115t36 -145h-54q-6 73 -35 132.5t-76.5 102t-110 65.5t-135.5 23q-103 0 -177 -41.5t-122.5 -110t-71.5 -156t-24 -178.5v-42q1 -93 24 -180t71.5 -155 t123 -109.5t178.5 -41.5q69 0 130.5 19t109 56.5t77.5 92.5t38 126h54q-7 -76 -38.5 -137.5t-80.5 -106t-113 -70.5t-137 -32v-227h-56v226q-110 3 -191.5 50t-135.5 122t-80.5 170.5t-27.5 196.5z" />
<glyph unicode="&#xa3;" d="M155 667v54h208l-9 318q0 84 22.5 163t68 139.5t114.5 97.5t161 37q87 0 155 -29.5t116 -81t74 -122.5t28 -154h-54q-3 72 -24.5 133.5t-62 106t-98.5 69t-134 24.5q-81 0 -140 -32.5t-97.5 -86t-56.5 -122.5t-18 -142l9 -318h370v-54h-368l10 -331q1 -37 -1 -74.5 t-9.5 -74t-21.5 -70.5t-37 -63h758l1 -54h-960v54h120q35 16 55 50t29 74.5t11 82.5t1 75l-10 331h-210z" />
<glyph unicode="&#xa4;" d="M99 13l154 182q-31 45 -54.5 95.5t-39 103.5t-23.5 107t-8 107q0 54 8.5 110t25.5 111t41.5 106.5t57.5 96.5l-162 193l38 39l159 -189q63 72 147.5 115.5t190.5 43.5t190.5 -44t147.5 -116l162 191l39 -40l-165 -196q65 -91 98 -201.5t33 -219.5q0 -105 -31 -212 t-92 -198l157 -185l-39 -40l-152 179q-63 -78 -150 -125t-198 -47q-110 0 -197 47t-151 124l-149 -177zM183 608q0 -64 13 -131.5t39 -131t64.5 -120.5t88.5 -99.5t111.5 -67.5t134.5 -25t134.5 25t111.5 67.5t88.5 99.5t64.5 120.5t39 131t13 131.5q0 63 -13 130.5t-39 131 t-64.5 120t-88.5 99t-111.5 67.5t-134.5 25t-134.5 -24.5t-111.5 -67t-88.5 -99t-64 -120.5t-39 -131t-13.5 -131z" />
<glyph unicode="&#xa5;" d="M73 1456h65l451 -718l23 -51h5l24 51l450 718h66l-488 -780h423v-55h-451v-240h451v-55h-451v-326h-54v326h-448v55h448v240h-448v55h419z" />
<glyph unicode="&#xa6;" d="M576 -270v752h54v-752h-54zM576 698v758h54v-758h-54z" />
<glyph unicode="&#xa7;" d="M124 -64l54 2q3 -93 37.5 -164t92 -119t134.5 -72t166 -24q68 0 138 16t127 50.5t93 89.5t37 134t-36 132.5t-94 89t-125.5 57t-132.5 38.5q-51 13 -106.5 28.5t-109.5 37t-103 49.5t-86 66.5t-59 88.5t-21 115q0 65 24 113t63 81t89.5 52.5t105.5 28.5q-49 20 -92 47 t-75.5 63.5t-51 83.5t-18.5 109q0 91 40.5 157t105.5 108t145 62t160 20q101 0 183.5 -29.5t141.5 -85t92.5 -135.5t36.5 -181h-54q-3 85 -33.5 154.5t-84 119t-125.5 76.5t-157 27q-46 0 -93 -6.5t-91 -21t-82.5 -37t-67.5 -55t-46 -75t-17 -95.5q0 -54 16.5 -96t46 -74.5 t69 -56.5t83.5 -42.5t90 -32.5t90 -26q50 -14 105 -29t108 -35t101.5 -46.5t85 -63.5t57.5 -86t21 -113q-1 -67 -28 -114.5t-70 -79t-98 -49.5t-111 -25q52 -20 100 -47t84 -64t57.5 -86.5t21.5 -114.5q0 -92 -40 -157.5t-104.5 -107.5t-144.5 -61.5t-161 -19.5 q-101 0 -188.5 28t-152 82.5t-102.5 135t-41 185.5zM184 553q-1 -58 19.5 -102.5t55.5 -77.5t81 -57.5t96 -42.5t100.5 -32t95.5 -26l65 -19q54 2 115 13t113 37.5t87 70.5t36 111q1 57 -20 100.5t-56.5 77.5t-82 58.5t-97 43.5t-101 32.5t-93.5 25.5q-26 7 -51.5 14.5 t-51.5 15.5q-56 -4 -111 -18t-99.5 -42t-72 -73t-28.5 -110z" />
<glyph unicode="&#xa8;" d="M334 1421q0 22 16.5 39t38.5 17t39 -17t17 -39t-17 -38.5t-39 -16.5t-38.5 16.5t-16.5 38.5zM779 1421q0 22 16.5 39t38.5 17t39 -17t17 -39t-17 -38.5t-39 -16.5t-38.5 16.5t-16.5 38.5z" />
<glyph unicode="&#xa9;" d="M84 551q0 62 14 127t43 127t73 116.5t104 95.5t136 65t169 24t169 -24t135.5 -65t103.5 -95.5t73 -116.5t43 -127t14 -127q0 -64 -14 -131.5t-43 -131t-72.5 -120t-103.5 -98.5t-136 -66.5t-169 -24.5t-169 24.5t-136 67t-104 98.5t-73 119.5t-43 131t-14 131.5zM139 551 q0 -56 12.5 -116t38 -117.5t64.5 -109t93 -90.5t122.5 -61.5t153.5 -22.5q84 0 153 23t122.5 61.5t92.5 90t64.5 109t38 117.5t12.5 116q0 54 -12.5 112t-38 113.5t-64.5 105.5t-93 87.5t-122.5 59.5t-152.5 22t-153 -22t-122.5 -59.5t-93 -87.5t-65 -105.5t-38 -113.5 t-12.5 -112zM371 529v48q0 28 5.5 60.5t16.5 65.5t29.5 64t46 55t64 38.5t84.5 14.5q64 0 108.5 -20.5t71.5 -53t38.5 -72.5t10.5 -78h-48q-4 27 -12 57t-27 55.5t-53 42t-89 16.5q-59 0 -96 -26.5t-58.5 -64.5t-29.5 -80t-8 -73v-49q1 -32 8.5 -75t28.5 -82t58.5 -66.5 t96.5 -28.5q55 -1 89 17t53 45t27 58.5t11 58.5h48q1 -38 -10 -79.5t-38 -76t-71.5 -56.5t-108.5 -22q-48 0 -85 15.5t-64 40t-45.5 56.5t-29.5 66t-16.5 67.5t-5.5 61.5z" />
<glyph unicode="&#xaa;" d="M319 1243q4 60 31 103.5t69 72.5t94 43t108 14q62 0 110 -21t81.5 -57.5t51.5 -87t20 -110.5v-314q0 -47 7 -91.5t20 -89.5h-59q-9 30 -14.5 60.5t-7.5 62.5q-42 -63 -109 -99.5t-143 -37.5q-48 0 -94.5 12t-82.5 38t-58 65.5t-22 93.5q0 67 31 111t79 71t106.5 38 t113.5 12h178v69q-2 48 -15.5 88.5t-39.5 70t-64 46t-89 16.5q-46 0 -89 -9t-77 -30t-56 -55.5t-25 -84.5h-55zM375 904q0 -43 17.5 -73.5t46 -49t65.5 -27t75 -8.5q34 0 74 11.5t76 32t63 50t37 66.5v172h-177q-44 -1 -92.5 -7.5t-89.5 -25t-68 -52.5t-27 -89z" />
<glyph unicode="&#xab;" d="M275 516v19l295 370h70l-294 -380l294 -379h-70zM610 516v19l295 370h70l-294 -380l294 -379h-70z" />
<glyph unicode="&#xac;" d="M207 700v53h793v-357h-54v304h-739z" />
<glyph unicode="&#xad;" horiz-adv-x="1230" d="M240 639v54h718v-54h-718z" />
<glyph unicode="&#xae;" d="M81 539q0 64 14 130.5t43 128.5t73 116t104 94.5t136 64t169 23.5t169 -23.5t135.5 -64t103.5 -94.5t73 -116t43 -128.5t14 -130.5t-14 -130.5t-43 -129t-72.5 -117t-103.5 -95.5t-136 -64.5t-169 -23.5t-169 23.5t-136 64.5t-104 95.5t-73 117t-43 129t-14 130.5z M135 539q0 -56 12.5 -115t38 -115.5t65 -106t93 -87t122.5 -59.5t154 -22q127 0 218 47.5t150 121.5t87 163t28 173q0 56 -12.5 115t-38 114.5t-64.5 105.5t-93 87t-122.5 58.5t-152.5 21.5q-85 0 -153.5 -21.5t-122.5 -58.5t-93.5 -87t-65 -105.5t-38 -114.5t-12.5 -115z M428 236v610h202q100 -2 154.5 -49.5t53.5 -128.5q-1 -60 -37 -99.5t-102 -54.5l159 -278h-58l-149 262h-170v-262h-53zM481 550h159q38 1 65.5 10.5t44.5 26t25.5 37.5t8.5 45q1 56 -38 87.5t-116 34.5h-149v-241z" />
<glyph unicode="&#xaf;" d="M301 1403v53h627v-53h-627z" />
<glyph unicode="&#xb0;" d="M380 1236q0 48 18.5 91.5t51 76.5t75.5 52.5t91 19.5t90 -20t73.5 -53t50 -76.5t18.5 -90.5q0 -48 -18 -91t-49.5 -75.5t-74 -51.5t-90.5 -19t-91 19t-75.5 51t-51 75.5t-18.5 91.5zM435 1236q0 -38 14 -71t38.5 -57.5t57.5 -38.5t71 -14t70 14t55.5 39t37 57.5 t13.5 70.5q0 37 -13 71t-36.5 59t-55.5 40t-71 15t-72 -14.5t-57 -40t-38 -59t-14 -71.5z" />
<glyph unicode="&#xb1;" d="M156 751v54h443v462h54v-462h419v-54h-419v-462h-54v462h-443zM212 -1v54h835v-54h-835z" />
<glyph unicode="&#xb2;" d="M346 1229q3 55 25 99.5t58.5 75t84.5 47t102 16.5q49 0 94 -14t79.5 -41t55 -67.5t20.5 -93.5q0 -43 -18 -82.5t-44.5 -75.5t-57.5 -68.5t-59 -60.5l-251 -248h476v-49h-543v44l290 295q24 24 50.5 51.5t49.5 58t38 64t15 70.5q0 42 -15.5 73.5t-42.5 52.5t-62.5 31.5 t-74.5 10.5q-45 0 -83.5 -12.5t-67 -36.5t-45.5 -59t-20 -81h-54z" />
<glyph unicode="&#xb3;" d="M351 883h54q4 -46 24.5 -79.5t53 -56t72.5 -33.5t83 -11q40 0 79 10t69.5 31t49 54t18.5 78q0 50 -22.5 82t-58 50.5t-78 26t-83.5 8.5h-71v49h71q37 1 76 9t71.5 27t54 49t21.5 74q0 42 -17 73.5t-45.5 52t-65 30.5t-74.5 10q-41 0 -77.5 -10.5t-65 -31.5t-47 -53 t-22.5 -74h-53q4 53 27 93.5t59 68.5t82 42t97 14q49 0 95.5 -13.5t82.5 -41t57 -68.5t21 -95q0 -36 -13.5 -65t-36 -51t-51.5 -37.5t-61 -25.5q36 -8 69 -23t57.5 -38.5t39.5 -55.5t15 -75q0 -56 -23.5 -97.5t-61.5 -69.5t-86.5 -41.5t-98.5 -13.5q-54 0 -104 14t-89 42.5 t-64.5 71.5t-29.5 100z" />
<glyph unicode="&#xb4;" d="M490 1250l184 266h66l-191 -266h-59z" />
<glyph unicode="&#xb5;" d="M224 -416v1498h52v-642q2 -75 17 -148t50.5 -130.5t93.5 -92.5t145 -35q97 0 165 31.5t111.5 85.5t65.5 127t28 156v648h54v-1082h-51l-3 220q-22 -53 -54.5 -96.5t-77 -75.5t-101.5 -50t-128 -18q-53 0 -100 13.5t-87 38.5t-72.5 59.5t-55.5 76.5v-584h-52z" />
<glyph unicode="&#xb6;" d="M255 988q0 108 38 194t104 146.5t155.5 93.5t193.5 34h179v-1456h-54v520h-125q-104 1 -194 34t-156 93.5t-103.5 146.5t-37.5 194z" />
<glyph unicode="&#xb7;" d="M565 706q0 22 16.5 39t38.5 17t39 -17t17 -39t-17 -38.5t-39 -16.5t-38.5 16.5t-16.5 38.5z" />
<glyph unicode="&#xb8;" d="M492 -386q33 1 73.5 7.5t76.5 22t61 42.5t26 69q1 39 -17.5 61.5t-47 35.5t-62 18t-62.5 9l25 121h53l-11 -76q36 -5 68.5 -17t56.5 -32.5t38 -50t14 -69.5q0 -56 -28 -92t-70.5 -57t-92.5 -30.5t-94 -10.5z" />
<glyph unicode="&#xb9;" d="M426 1306v53l293 97h9v-791h-54v722z" />
<glyph unicode="&#xba;" d="M310 1024v117q1 67 22 128t59.5 107t94.5 73t128 27t128 -27t95 -73t60 -107t22 -128v-117q-1 -67 -21.5 -127.5t-59.5 -106.5t-94.5 -73t-127.5 -27t-128.5 26.5t-95.5 72.5t-60 106.5t-22 128.5zM364 1024q1 -58 17.5 -109t48 -89t78 -60t108.5 -22q61 0 107 22.5 t77.5 61t48 89t17.5 107.5v117q-1 57 -17.5 108t-48.5 89.5t-78.5 61t-107.5 22.5t-107 -23t-77.5 -61.5t-48 -89.5t-17.5 -107v-117z" />
<glyph unicode="&#xbb;" d="M249 171l293 379l-293 390h70l294 -380v-19l-294 -370h-70zM594 171l293 379l-293 390h70l294 -380v-19l-294 -370h-70z" />
<glyph unicode="&#xbc;" d="M61 1328v48l264 87h8v-712h-48v650zM281 170l534 1138l51 -31l-535 -1138zM581 212l375 498h54v-482h132v-44h-132v-184h-48v184h-380zM644 228h318v426l-39 -64z" />
<glyph unicode="&#xbd;" d="M69 1324v48l264 87h8v-712h-48v650zM256 170l534 1138l51 -31l-535 -1138zM646 506q3 49 22.5 89t52.5 67.5t76 42.5t92 15q44 0 84.5 -12.5t71.5 -37t49.5 -61t18.5 -83.5q0 -39 -16 -74.5t-40 -68t-52 -61.5t-53 -55l-226 -223h428v-44h-488v40l261 265q21 22 45 46.5 t44.5 52t34 57.5t13.5 64q0 38 -14 66t-38 47t-56 28.5t-67 9.5q-41 0 -75.5 -11.5t-60 -33t-41 -53t-18.5 -72.5h-48z" />
<glyph unicode="&#xbe;" d="M61 939h49q4 -41 22.5 -71t47.5 -50.5t65 -30.5t75 -10q36 0 71 9t62.5 28t44 49t16.5 70q0 45 -20 74t-52 45.5t-70.5 23t-75.5 7.5h-64v44h64q34 1 69 8.5t64 24.5t48.5 44t19.5 67q0 37 -15.5 65.5t-41 47t-58.5 27.5t-67 9q-37 0 -69.5 -9.5t-58.5 -28.5t-42.5 -47.5 t-20.5 -66.5h-47q3 48 24 84t53.5 61.5t73.5 38t87 12.5q44 0 86 -12t74.5 -37t51.5 -62t19 -85q0 -33 -12.5 -59t-32.5 -45.5t-46 -33.5t-55 -23q32 -7 62 -20.5t52 -35t35.5 -50t13.5 -67.5q0 -50 -21.5 -87.5t-55.5 -63t-77.5 -37.5t-88.5 -12q-49 0 -94 12.5t-80 38.5 t-58 64.5t-27 89.5zM358 162l534 1138l51 -31l-535 -1138zM605 213l375 498h54v-482h132v-44h-132v-184h-48v184h-380zM668 229h318v426l-39 -64z" />
<glyph unicode="&#xbf;" d="M261 -15q0 72 20 136t54.5 120.5t80.5 107t98 96.5q31 28 50.5 55t30.5 57t14.5 63.5t3.5 74.5h54q-1 -49 -7 -88t-20.5 -73t-38 -65.5t-59.5 -65.5q-47 -45 -88.5 -90.5t-72.5 -95.5t-48.5 -107.5t-17.5 -126.5q0 -68 21 -125.5t59.5 -98.5t93.5 -64t125 -23 q69 0 123.5 23t92.5 64t59.5 97.5t25.5 122.5h54q-3 -78 -28.5 -144t-71 -114t-110 -75t-145.5 -27q-80 0 -145.5 28t-111.5 77t-71 116t-25 145zM580 1046q0 22 17 38.5t39 16.5t38.5 -16.5t16.5 -38.5t-16.5 -39t-38.5 -17t-39 17t-17 39z" />
<glyph unicode="&#xc0;" d="M122 0l477 1456h62l477 -1456h-56l-143 435h-619l-142 -435h-56zM337 489h585l-292 893zM427 1835h65l180 -266h-58z" />
<glyph unicode="&#xc1;" d="M122 0l477 1456h62l477 -1456h-56l-143 435h-619l-142 -435h-56zM337 489h585l-292 893zM594 1569l184 266h66l-191 -266h-59z" />
<glyph unicode="&#xc2;" d="M122 0l477 1456h62l477 -1456h-56l-143 435h-619l-142 -435h-56zM337 489h585l-292 893zM383 1583v14l230 239h40l234 -243v-10h-68l-187 196l-185 -196h-64z" />
<glyph unicode="&#xc3;" d="M122 0l477 1456h62l477 -1456h-56l-143 435h-619l-142 -435h-56zM315 1620q2 37 14.5 69.5t34 57t52.5 38.5t71 14q42 0 76 -19.5t65.5 -43t64 -42.5t73.5 -19q29 0 50 11t35 29t21.5 41.5t10.5 49.5h54q-2 -37 -14 -70.5t-34 -59t-52.5 -41t-70.5 -15.5q-29 0 -53 9.5 t-46 23.5t-42.5 30t-42 30t-45 23t-50.5 9q-29 0 -50 -10t-35 -27t-22 -39.5t-11 -48.5h-54zM337 489h585l-292 893z" />
<glyph unicode="&#xc4;" d="M122 0l477 1456h62l477 -1456h-56l-143 435h-619l-142 -435h-56zM337 489h585l-292 893zM343 1740q0 22 16.5 39t38.5 17t39 -17t17 -39t-17 -38.5t-39 -16.5t-38.5 16.5t-16.5 38.5zM788 1740q0 22 16.5 39t38.5 17t39 -17t17 -39t-17 -38.5t-39 -16.5t-38.5 16.5 t-16.5 38.5z" />
<glyph unicode="&#xc5;" d="M122 0l477 1456h62l477 -1456h-56l-143 435h-619l-142 -435h-56zM337 489h585l-292 893zM465 1701q0 34 12 65.5t34 55.5t52 38.5t65 14.5t65 -14.5t52 -38.5t34.5 -55.5t12.5 -65.5t-12.5 -65t-34.5 -54t-52 -37t-65 -14t-65 14t-51.5 37t-34 54t-12.5 65zM519 1701 q0 -23 8 -44t22.5 -37t34.5 -25.5t44 -9.5t44.5 9.5t35 25.5t22.5 37t8 44q0 24 -8 45.5t-22.5 38t-34.5 26.5t-45 10q-24 0 -44.5 -10t-34.5 -26.5t-22 -38t-8 -45.5z" />
<glyph unicode="&#xc6;" d="M78 0l544 1456h488v-54h-427l16 -616h361v-54h-359l17 -678h430v-54h-476l-11 425h-372l-158 -425h-53zM309 478h351l-23 880z" />
<glyph unicode="&#xc7;" d="M143 619v218q1 71 13 146.5t37 146t63 133.5t90 110t119 74.5t151 28.5q102 1 184 -35.5t141 -99.5t94.5 -148t46.5 -181h-53q-14 84 -45.5 159t-82.5 131t-121.5 88.5t-163.5 31.5q-75 -1 -135.5 -26.5t-106.5 -69t-79.5 -101.5t-55 -122.5t-31.5 -132.5t-11 -131v-220 q1 -64 11 -132t31.5 -132.5t54.5 -122.5t79.5 -102t106.5 -70t136 -26q94 -1 165 31.5t121.5 88.5t81.5 131.5t45 160.5h53q-11 -96 -46.5 -181t-94.5 -148.5t-140.5 -100.5t-184.5 -36q-84 0 -151 28t-119.5 75t-90 110t-62.5 134t-37 145.5t-13 146.5zM511 -395 q33 1 73.5 7.5t76.5 22t61 42.5t26 69q1 39 -17.5 61.5t-47 35.5t-62 18t-62.5 9l25 121h53l-11 -76q36 -5 68.5 -17t56.5 -32.5t38 -50t14 -69.5q0 -56 -28 -92t-70.5 -57t-92.5 -30.5t-94 -10.5z" />
<glyph unicode="&#xc8;" d="M220 0v1456h825v-54h-772v-626h677v-54h-677v-668h772v-54h-825zM324 1835h65l180 -266h-58z" />
<glyph unicode="&#xc9;" d="M220 0v1456h825v-54h-772v-626h677v-54h-677v-668h772v-54h-825zM491 1569l184 266h66l-191 -266h-59z" />
<glyph unicode="&#xca;" d="M220 0v1456h825v-54h-772v-626h677v-54h-677v-668h772v-54h-825zM280 1583v14l230 239h40l234 -243v-10h-68l-187 196l-185 -196h-64z" />
<glyph unicode="&#xcb;" d="M220 0v1456h825v-54h-772v-626h677v-54h-677v-668h772v-54h-825zM241 1740q0 22 16.5 39t38.5 17t39 -17t17 -39t-17 -38.5t-39 -16.5t-38.5 16.5t-16.5 38.5zM686 1740q0 22 16.5 39t38.5 17t39 -17t17 -39t-17 -38.5t-39 -16.5t-38.5 16.5t-16.5 38.5z" />
<glyph unicode="&#xcc;" d="M212 0v54h367v1346h-367v56h806v-56h-381v-1346h381v-54h-806zM430 1835h65l180 -266h-58z" />
<glyph unicode="&#xcd;" d="M212 0v54h367v1346h-367v56h806v-56h-381v-1346h381v-54h-806zM597 1569l184 266h66l-191 -266h-59z" />
<glyph unicode="&#xce;" d="M212 0v54h367v1346h-367v56h806v-56h-381v-1346h381v-54h-806zM386 1583v14l230 239h40l234 -243v-10h-68l-187 196l-185 -196h-64z" />
<glyph unicode="&#xcf;" d="M212 0v54h367v1346h-367v56h806v-56h-381v-1346h381v-54h-806zM346 1740q0 22 16.5 39t38.5 17t39 -17t17 -39t-17 -38.5t-39 -16.5t-38.5 16.5t-16.5 38.5zM791 1740q0 22 16.5 39t38.5 17t39 -17t17 -39t-17 -38.5t-39 -16.5t-38.5 16.5t-16.5 38.5z" />
<glyph unicode="&#xd0;" horiz-adv-x="1259" d="M-45 713v54h275v689h366q85 -2 158.5 -28t133.5 -70.5t106.5 -105t78.5 -130.5t49 -148t18 -157v-178q-1 -79 -18 -157t-49 -148t-78.5 -130.5t-106.5 -105t-133.5 -70.5t-158.5 -28h-366v713h-275zM282 54h314q78 2 144 26t120 65t96 96.5t70.5 120t43.5 135t16 142.5 v181q-2 107 -35 210t-95.5 185t-153 133t-206.5 54h-314v-635h260v-54h-260v-659z" />
<glyph unicode="&#xd1;" d="M180 0v1456h50l771 -1361l-2 1361h52v-1456h-50l-772 1364l2 -1364h-51zM317 1620q2 37 14.5 69.5t34 57t52.5 38.5t71 14q42 0 76 -19.5t65.5 -43t64 -42.5t73.5 -19q29 0 50 11t35 29t21.5 41.5t10.5 49.5h54q-2 -37 -14 -70.5t-34 -59t-52.5 -41t-70.5 -15.5 q-29 0 -53 9.5t-46 23.5t-42.5 30t-42 30t-45 23t-50.5 9q-29 0 -50 -10t-35 -27t-22 -39.5t-11 -48.5h-54z" />
<glyph unicode="&#xd2;" d="M142 619v218q1 71 13 146t36.5 146t62 134t90 110.5t119.5 75t151 27.5t151 -27.5t119.5 -75t90 -110.5t62 -134t36.5 -146t13 -146v-218q-1 -71 -13 -146t-36 -146t-61.5 -134t-89.5 -110.5t-119.5 -75t-150.5 -27.5t-150.5 27.5t-120 75t-90.5 110.5t-62.5 134t-37 146 t-13.5 146zM197 619q1 -64 11 -132t31 -133t54 -123t79.5 -102t107 -69.5t136.5 -25.5t136.5 25.5t106.5 69.5t79 102t54 123t30.5 133t10.5 132v220q-1 64 -11 132t-31 132.5t-54 122.5t-79.5 101.5t-107 69t-136.5 25.5t-136 -25.5t-106.5 -69t-79 -101.5t-53.5 -123 t-31 -133t-11 -131v-220zM418 1856h65l180 -266h-58z" />
<glyph unicode="&#xd3;" d="M142 619v218q1 71 13 146t36.5 146t62 134t90 110.5t119.5 75t151 27.5t151 -27.5t119.5 -75t90 -110.5t62 -134t36.5 -146t13 -146v-218q-1 -71 -13 -146t-36 -146t-61.5 -134t-89.5 -110.5t-119.5 -75t-150.5 -27.5t-150.5 27.5t-120 75t-90.5 110.5t-62.5 134t-37 146 t-13.5 146zM197 619q1 -64 11 -132t31 -133t54 -123t79.5 -102t107 -69.5t136.5 -25.5t136.5 25.5t106.5 69.5t79 102t54 123t30.5 133t10.5 132v220q-1 64 -11 132t-31 132.5t-54 122.5t-79.5 101.5t-107 69t-136.5 25.5t-136 -25.5t-106.5 -69t-79 -101.5t-53.5 -123 t-31 -133t-11 -131v-220zM585 1590l184 266h66l-191 -266h-59z" />
<glyph unicode="&#xd4;" d="M142 619v218q1 71 13 146t36.5 146t62 134t90 110.5t119.5 75t151 27.5t151 -27.5t119.5 -75t90 -110.5t62 -134t36.5 -146t13 -146v-218q-1 -71 -13 -146t-36 -146t-61.5 -134t-89.5 -110.5t-119.5 -75t-150.5 -27.5t-150.5 27.5t-120 75t-90.5 110.5t-62.5 134t-37 146 t-13.5 146zM197 619q1 -64 11 -132t31 -133t54 -123t79.5 -102t107 -69.5t136.5 -25.5t136.5 25.5t106.5 69.5t79 102t54 123t30.5 133t10.5 132v220q-1 64 -11 132t-31 132.5t-54 122.5t-79.5 101.5t-107 69t-136.5 25.5t-136 -25.5t-106.5 -69t-79 -101.5t-53.5 -123 t-31 -133t-11 -131v-220zM374 1604v14l230 239h40l234 -243v-10h-68l-187 196l-185 -196h-64z" />
<glyph unicode="&#xd5;" d="M142 619v218q1 71 13 146t36.5 146t62 134t90 110.5t119.5 75t151 27.5t151 -27.5t119.5 -75t90 -110.5t62 -134t36.5 -146t13 -146v-218q-1 -71 -13 -146t-36 -146t-61.5 -134t-89.5 -110.5t-119.5 -75t-150.5 -27.5t-150.5 27.5t-120 75t-90.5 110.5t-62.5 134t-37 146 t-13.5 146zM197 619q1 -64 11 -132t31 -133t54 -123t79.5 -102t107 -69.5t136.5 -25.5t136.5 25.5t106.5 69.5t79 102t54 123t30.5 133t10.5 132v220q-1 64 -11 132t-31 132.5t-54 122.5t-79.5 101.5t-107 69t-136.5 25.5t-136 -25.5t-106.5 -69t-79 -101.5t-53.5 -123 t-31 -133t-11 -131v-220zM306 1641q2 37 14.5 69.5t34 57t52.5 38.5t71 14q42 0 76 -19.5t65.5 -43t64 -42.5t73.5 -19q29 0 50 11t35 29t21.5 41.5t10.5 49.5h54q-2 -37 -14 -70.5t-34 -59t-52.5 -41t-70.5 -15.5q-29 0 -53 9.5t-46 23.5t-42.5 30t-42 30t-45 23t-50.5 9 q-29 0 -50 -10t-35 -27t-22 -39.5t-11 -48.5h-54z" />
<glyph unicode="&#xd6;" d="M142 619v218q1 71 13 146t36.5 146t62 134t90 110.5t119.5 75t151 27.5t151 -27.5t119.5 -75t90 -110.5t62 -134t36.5 -146t13 -146v-218q-1 -71 -13 -146t-36 -146t-61.5 -134t-89.5 -110.5t-119.5 -75t-150.5 -27.5t-150.5 27.5t-120 75t-90.5 110.5t-62.5 134t-37 146 t-13.5 146zM197 619q1 -64 11 -132t31 -133t54 -123t79.5 -102t107 -69.5t136.5 -25.5t136.5 25.5t106.5 69.5t79 102t54 123t30.5 133t10.5 132v220q-1 64 -11 132t-31 132.5t-54 122.5t-79.5 101.5t-107 69t-136.5 25.5t-136 -25.5t-106.5 -69t-79 -101.5t-53.5 -123 t-31 -133t-11 -131v-220zM334 1761q0 22 16.5 39t38.5 17t39 -17t17 -39t-17 -38.5t-39 -16.5t-38.5 16.5t-16.5 38.5zM779 1761q0 22 16.5 39t38.5 17t39 -17t17 -39t-17 -38.5t-39 -16.5t-38.5 16.5t-16.5 38.5z" />
<glyph unicode="&#xd7;" d="M212 36l384 393l-357 364l39 39l356 -364l357 364l39 -39l-357 -364l385 -393l-39 -37l-384 391l-384 -391z" />
<glyph unicode="&#xd8;" d="M130 619v218q1 71 13 146t36.5 146t62 134t90 110.5t119.5 75t151 27.5q58 0 109 -14t93.5 -39t78 -59.5t64.5 -76.5l122 208h64l-154 -262q48 -90 70.5 -193.5t24.5 -202.5v-218q-1 -71 -13 -146t-36 -146t-61.5 -134t-89.5 -110.5t-119.5 -75t-150.5 -27.5 q-91 0 -163 32.5t-126 87.5l-102 -175h-64l128 219q-38 48 -65 105.5t-45 119.5t-27 125.5t-10 124.5zM185 619q0 -54 7.5 -110.5t22 -112t37 -107.5t54.5 -97l612 1045q-25 40 -57 74t-71 59t-86 38.5t-102 13.5q-76 0 -136 -25.5t-106.5 -69t-79 -101.5t-53.5 -123 t-31 -133t-11 -131v-220zM343 147q48 -52 112 -82.5t149 -30.5q76 0 136.5 25.5t106.5 69.5t79 102t54 123t30.5 133t10.5 132v220q-1 84 -18 173t-55 168z" />
<glyph unicode="&#xd9;" d="M176 469l1 987h51l1 -987q1 -85 27.5 -163.5t76 -139t121 -96.5t162.5 -36t162 36.5t120 97t75 139t28 162.5l1 987h52l1 -987q-2 -97 -31.5 -185.5t-86 -156t-137.5 -107.5t-184 -40q-104 0 -185 40t-137 107.5t-86.5 156t-31.5 185.5zM410 1835h65l180 -266h-58z" />
<glyph unicode="&#xda;" d="M176 469l1 987h51l1 -987q1 -85 27.5 -163.5t76 -139t121 -96.5t162.5 -36t162 36.5t120 97t75 139t28 162.5l1 987h52l1 -987q-2 -97 -31.5 -185.5t-86 -156t-137.5 -107.5t-184 -40q-104 0 -185 40t-137 107.5t-86.5 156t-31.5 185.5zM577 1569l184 266h66l-191 -266 h-59z" />
<glyph unicode="&#xdb;" d="M176 469l1 987h51l1 -987q1 -85 27.5 -163.5t76 -139t121 -96.5t162.5 -36t162 36.5t120 97t75 139t28 162.5l1 987h52l1 -987q-2 -97 -31.5 -185.5t-86 -156t-137.5 -107.5t-184 -40q-104 0 -185 40t-137 107.5t-86.5 156t-31.5 185.5zM366 1583v14l230 239h40l234 -243 v-10h-68l-187 196l-185 -196h-64z" />
<glyph unicode="&#xdc;" d="M176 469l1 987h51l1 -987q1 -85 27.5 -163.5t76 -139t121 -96.5t162.5 -36t162 36.5t120 97t75 139t28 162.5l1 987h52l1 -987q-2 -97 -31.5 -185.5t-86 -156t-137.5 -107.5t-184 -40q-104 0 -185 40t-137 107.5t-86.5 156t-31.5 185.5zM327 1740q0 22 16.5 39t38.5 17 t39 -17t17 -39t-17 -38.5t-39 -16.5t-38.5 16.5t-16.5 38.5zM772 1740q0 22 16.5 39t38.5 17t39 -17t17 -39t-17 -38.5t-39 -16.5t-38.5 16.5t-16.5 38.5z" />
<glyph unicode="&#xdd;" d="M90 1456h67l440 -854l446 854h63l-482 -903v-553h-52l-1 553zM558 1558l184 266h66l-191 -266h-59z" />
<glyph unicode="&#xde;" d="M214 0v1456h54v-313h371q91 -1 173 -28t143.5 -78.5t97.5 -126.5t36 -172t-36 -172t-97.5 -126t-143.5 -78t-173 -28h-371v-334h-54zM268 388h371q77 1 148.5 24t126.5 67.5t88 108.5t33 148q0 85 -32.5 150t-87 110t-126 68.5t-150.5 24.5h-371v-701z" />
<glyph unicode="&#xdf;" d="M218 0v1143q1 74 19 144.5t57 125.5t101.5 88.5t152.5 33.5q63 0 119.5 -21.5t99.5 -58.5t69 -87.5t26 -110.5q1 -58 -17 -110t-39 -103t-39 -104t-17 -111q1 -52 24.5 -93t58.5 -78t76 -73.5t75.5 -79.5t57.5 -96t23 -122t-28 -125.5t-75 -97t-107.5 -63t-126.5 -22.5 q-38 0 -79 5t-81 16t-77 27.5t-67 40.5l24 49q57 -40 130 -62.5t143 -22.5q57 0 110 18.5t93 53t63.5 83t23.5 109.5q0 60 -23.5 106t-58 85t-75 74.5t-75 75t-58 86.5t-24.5 108q-1 58 15.5 110.5t37 104t37.5 104t16 109.5q-1 45 -21 85t-53.5 70t-77.5 48t-93 19 q-80 1 -134.5 -27.5t-88 -75.5t-48.5 -108.5t-16 -126.5v-1143h-53z" />
<glyph unicode="&#xe0;" d="M184 274q0 97 47 160.5t121.5 101t166.5 52.5t182 16h267v158q-2 73 -30 127t-74.5 89t-108 52.5t-129.5 17.5q-60 0 -122.5 -16t-113.5 -48.5t-85 -82t-37 -117.5l-54 2q4 79 42.5 138t97 98.5t130 59.5t142.5 20q80 0 151.5 -21.5t125.5 -64t85.5 -107t33.5 -149.5 v-542q1 -55 10 -105t19 -104l1 -9h-63q-12 51 -16 101t-5 101q-35 -55 -83.5 -97t-105.5 -69.5t-121 -41.5t-131 -14q-65 0 -127 19.5t-110 56.5t-77 92t-29 126zM238 270q0 -57 26 -101.5t67.5 -74.5t93 -45.5t102.5 -15.5q71 -1 137.5 15.5t124 49.5t103.5 82t76 113v256 h-264q-51 -1 -105.5 -6t-106.5 -17t-98.5 -32t-81 -51t-55 -73.5t-19.5 -99.5zM441 1516h65l180 -266h-58z" />
<glyph unicode="&#xe1;" d="M184 274q0 97 47 160.5t121.5 101t166.5 52.5t182 16h267v158q-2 73 -30 127t-74.5 89t-108 52.5t-129.5 17.5q-60 0 -122.5 -16t-113.5 -48.5t-85 -82t-37 -117.5l-54 2q4 79 42.5 138t97 98.5t130 59.5t142.5 20q80 0 151.5 -21.5t125.5 -64t85.5 -107t33.5 -149.5 v-542q1 -55 10 -105t19 -104l1 -9h-63q-12 51 -16 101t-5 101q-35 -55 -83.5 -97t-105.5 -69.5t-121 -41.5t-131 -14q-65 0 -127 19.5t-110 56.5t-77 92t-29 126zM238 270q0 -57 26 -101.5t67.5 -74.5t93 -45.5t102.5 -15.5q71 -1 137.5 15.5t124 49.5t103.5 82t76 113v256 h-264q-51 -1 -105.5 -6t-106.5 -17t-98.5 -32t-81 -51t-55 -73.5t-19.5 -99.5zM608 1250l184 266h66l-191 -266h-59z" />
<glyph unicode="&#xe2;" d="M184 274q0 97 47 160.5t121.5 101t166.5 52.5t182 16h267v158q-2 73 -30 127t-74.5 89t-108 52.5t-129.5 17.5q-60 0 -122.5 -16t-113.5 -48.5t-85 -82t-37 -117.5l-54 2q4 79 42.5 138t97 98.5t130 59.5t142.5 20q80 0 151.5 -21.5t125.5 -64t85.5 -107t33.5 -149.5 v-542q1 -55 10 -105t19 -104l1 -9h-63q-12 51 -16 101t-5 101q-35 -55 -83.5 -97t-105.5 -69.5t-121 -41.5t-131 -14q-65 0 -127 19.5t-110 56.5t-77 92t-29 126zM238 270q0 -57 26 -101.5t67.5 -74.5t93 -45.5t102.5 -15.5q71 -1 137.5 15.5t124 49.5t103.5 82t76 113v256 h-264q-51 -1 -105.5 -6t-106.5 -17t-98.5 -32t-81 -51t-55 -73.5t-19.5 -99.5zM396 1264v14l230 239h40l234 -243v-10h-68l-187 196l-185 -196h-64z" />
<glyph unicode="&#xe3;" d="M184 274q0 97 47 160.5t121.5 101t166.5 52.5t182 16h267v158q-2 73 -30 127t-74.5 89t-108 52.5t-129.5 17.5q-60 0 -122.5 -16t-113.5 -48.5t-85 -82t-37 -117.5l-54 2q4 79 42.5 138t97 98.5t130 59.5t142.5 20q80 0 151.5 -21.5t125.5 -64t85.5 -107t33.5 -149.5 v-542q1 -55 10 -105t19 -104l1 -9h-63q-12 51 -16 101t-5 101q-35 -55 -83.5 -97t-105.5 -69.5t-121 -41.5t-131 -14q-65 0 -127 19.5t-110 56.5t-77 92t-29 126zM238 270q0 -57 26 -101.5t67.5 -74.5t93 -45.5t102.5 -15.5q71 -1 137.5 15.5t124 49.5t103.5 82t76 113v256 h-264q-51 -1 -105.5 -6t-106.5 -17t-98.5 -32t-81 -51t-55 -73.5t-19.5 -99.5zM329 1300q2 37 14.5 69.5t34 57t52.5 38.5t71 14q42 0 76 -19.5t65.5 -43t64 -42.5t73.5 -19q29 0 50 11t35 29t21.5 41.5t10.5 49.5h54q-2 -37 -14 -70.5t-34 -59t-52.5 -41t-70.5 -15.5 q-29 0 -53 9.5t-46 23.5t-42.5 30t-42 30t-45 23t-50.5 9q-29 0 -50 -10t-35 -27t-22 -39.5t-11 -48.5h-54z" />
<glyph unicode="&#xe4;" d="M184 274q0 97 47 160.5t121.5 101t166.5 52.5t182 16h267v158q-2 73 -30 127t-74.5 89t-108 52.5t-129.5 17.5q-60 0 -122.5 -16t-113.5 -48.5t-85 -82t-37 -117.5l-54 2q4 79 42.5 138t97 98.5t130 59.5t142.5 20q80 0 151.5 -21.5t125.5 -64t85.5 -107t33.5 -149.5 v-542q1 -55 10 -105t19 -104l1 -9h-63q-12 51 -16 101t-5 101q-35 -55 -83.5 -97t-105.5 -69.5t-121 -41.5t-131 -14q-65 0 -127 19.5t-110 56.5t-77 92t-29 126zM238 270q0 -57 26 -101.5t67.5 -74.5t93 -45.5t102.5 -15.5q71 -1 137.5 15.5t124 49.5t103.5 82t76 113v256 h-264q-51 -1 -105.5 -6t-106.5 -17t-98.5 -32t-81 -51t-55 -73.5t-19.5 -99.5zM357 1421q0 22 16.5 39t38.5 17t39 -17t17 -39t-17 -38.5t-39 -16.5t-38.5 16.5t-16.5 38.5zM802 1421q0 22 16.5 39t38.5 17t39 -17t17 -39t-17 -38.5t-39 -16.5t-38.5 16.5t-16.5 38.5z" />
<glyph unicode="&#xe5;" d="M184 274q0 97 47 160.5t121.5 101t166.5 52.5t182 16h267v158q-2 73 -30 127t-74.5 89t-108 52.5t-129.5 17.5q-60 0 -122.5 -16t-113.5 -48.5t-85 -82t-37 -117.5l-54 2q4 79 42.5 138t97 98.5t130 59.5t142.5 20q80 0 151.5 -21.5t125.5 -64t85.5 -107t33.5 -149.5 v-542q1 -55 10 -105t19 -104l1 -9h-63q-12 51 -16 101t-5 101q-35 -55 -83.5 -97t-105.5 -69.5t-121 -41.5t-131 -14q-65 0 -127 19.5t-110 56.5t-77 92t-29 126zM238 270q0 -57 26 -101.5t67.5 -74.5t93 -45.5t102.5 -15.5q71 -1 137.5 15.5t124 49.5t103.5 82t76 113v256 h-264q-51 -1 -105.5 -6t-106.5 -17t-98.5 -32t-81 -51t-55 -73.5t-19.5 -99.5zM479 1382q0 34 12 65.5t34 55.5t52 38.5t65 14.5t65 -14.5t52 -38.5t34.5 -55.5t12.5 -65.5t-12.5 -65t-34.5 -54t-52 -37t-65 -14t-65 14t-51.5 37t-34 54t-12.5 65zM533 1382q0 -23 8 -44 t22.5 -37t34.5 -25.5t44 -9.5t44.5 9.5t35 25.5t22.5 37t8 44q0 24 -8 45.5t-22.5 38t-34.5 26.5t-45 10q-24 0 -44.5 -10t-34.5 -26.5t-22 -38t-8 -45.5z" />
<glyph unicode="&#xe6;" d="M52 284q0 72 21 134.5t60.5 109t98 74t133.5 28.5h199l-1 190q0 36 -6.5 76t-28.5 74t-63.5 56t-111.5 22q-57 0 -101 -17t-73.5 -46.5t-44 -69t-12.5 -84.5h-52q-2 61 18.5 111.5t58.5 85.5t91 54.5t115 19.5q66 0 111.5 -17.5t75.5 -46t46.5 -66t23.5 -76.5 q16 42 40.5 79.5t57.5 65.5t76.5 44.5t97.5 16.5q58 0 102 -16.5t76.5 -45t54.5 -66.5t35.5 -80.5t19.5 -87t6 -86.5l-2 -143h-556v-177q0 -34 5 -74.5t16 -81t30.5 -78.5t50 -67t73 -47t100.5 -18q40 0 75 11t64 29t53 41.5t44 48.5l28 -42q-48 -66 -111.5 -104t-152.5 -38 q-60 0 -106.5 16.5t-81.5 44.5t-60.5 65t-41.5 78q-20 -44 -49 -81t-66.5 -64.5t-81.5 -43t-94 -15.5q-65 0 -113.5 25t-81 67t-49 97t-16.5 115zM106 280q0 -48 12.5 -93t37.5 -79.5t63.5 -55t91.5 -20.5q47 0 88.5 17t74.5 45t57 63t35 71l-1 130l-1 217v69q1 56 11 122.5 t35 129.5q4 -20 5 -39.5t2 -38.5l-1 -186h2v-55h-2v-359h1q-3 -9 -6.5 -17.5t-7.5 -16.5l-7 20l-29 -21l-1 45l1 1l23 -5q-14 45 -20 90t-6 86v175h-198q-63 -1 -111.5 -25t-81.5 -64t-50 -93t-17 -113zM564 575v55h27v2h25v-55h-23v-2h-29zM590 224l6 -20l20 14zM618 632 h507l-2 92q-3 50 -13 107t-36 105t-72 80t-120 32q-55 0 -96 -20t-70 -52.5t-48 -74.5t-30 -87t-15.5 -89.5t-4.5 -80.5v-12z" />
<glyph unicode="&#xe7;" d="M179 520v42q1 102 28.5 199.5t83 173t139.5 121.5t198 46q85 0 157.5 -27t126.5 -76.5t87 -119t40 -154.5h-54q-6 73 -35 132.5t-76.5 102t-110 65.5t-135.5 23q-103 0 -177 -41.5t-122.5 -110t-71.5 -156t-24 -178.5v-42q1 -93 24 -180t71.5 -155t123 -109.5 t178.5 -41.5q69 0 130.5 19t109 56.5t77.5 92.5t38 126h54q-8 -81 -43 -145.5t-89.5 -109.5t-126 -69t-150.5 -24q-114 0 -198.5 46t-140.5 121.5t-83.5 172.5t-28.5 200zM527 -395q33 1 73.5 7.5t76.5 22t61 42.5t26 69q1 39 -17.5 61.5t-47 35.5t-62 18t-62.5 9l25 121h53 l-11 -76q36 -5 68.5 -17t56.5 -32.5t38 -50t14 -69.5q0 -56 -28 -92t-70.5 -57t-92.5 -30.5t-94 -10.5z" />
<glyph unicode="&#xe8;" d="M164 518v44q1 101 34 198t94 173t148 122.5t197 46.5q98 0 177 -37t134.5 -100.5t85.5 -147.5t31 -177v-63h-847v-15v-44q1 -93 33 -180.5t89.5 -155t138 -108t179.5 -41.5q101 -1 185.5 35t149.5 114l39 -27q-69 -90 -165.5 -132.5t-208.5 -42.5q-111 0 -201.5 44.5 t-155 119.5t-100.5 172t-37 202zM223 631h788v13q0 80 -27.5 153t-76.5 129t-118 89t-152 33q-90 0 -162 -34.5t-124.5 -92.5t-85 -133.5t-42.5 -156.5zM428 1515h65l180 -266h-58z" />
<glyph unicode="&#xe9;" d="M164 518v44q1 101 34 198t94 173t148 122.5t197 46.5q98 0 177 -37t134.5 -100.5t85.5 -147.5t31 -177v-63h-847v-15v-44q1 -93 33 -180.5t89.5 -155t138 -108t179.5 -41.5q101 -1 185.5 35t149.5 114l39 -27q-69 -90 -165.5 -132.5t-208.5 -42.5q-111 0 -201.5 44.5 t-155 119.5t-100.5 172t-37 202zM223 631h788v13q0 80 -27.5 153t-76.5 129t-118 89t-152 33q-90 0 -162 -34.5t-124.5 -92.5t-85 -133.5t-42.5 -156.5zM595 1249l184 266h66l-191 -266h-59z" />
<glyph unicode="&#xea;" d="M164 518v44q1 101 34 198t94 173t148 122.5t197 46.5q98 0 177 -37t134.5 -100.5t85.5 -147.5t31 -177v-63h-847v-15v-44q1 -93 33 -180.5t89.5 -155t138 -108t179.5 -41.5q101 -1 185.5 35t149.5 114l39 -27q-69 -90 -165.5 -132.5t-208.5 -42.5q-111 0 -201.5 44.5 t-155 119.5t-100.5 172t-37 202zM223 631h788v13q0 80 -27.5 153t-76.5 129t-118 89t-152 33q-90 0 -162 -34.5t-124.5 -92.5t-85 -133.5t-42.5 -156.5zM384 1263v14l230 239h40l234 -243v-10h-68l-187 196l-185 -196h-64z" />
<glyph unicode="&#xeb;" d="M164 518v44q1 101 34 198t94 173t148 122.5t197 46.5q98 0 177 -37t134.5 -100.5t85.5 -147.5t31 -177v-63h-847v-15v-44q1 -93 33 -180.5t89.5 -155t138 -108t179.5 -41.5q101 -1 185.5 35t149.5 114l39 -27q-69 -90 -165.5 -132.5t-208.5 -42.5q-111 0 -201.5 44.5 t-155 119.5t-100.5 172t-37 202zM223 631h788v13q0 80 -27.5 153t-76.5 129t-118 89t-152 33q-90 0 -162 -34.5t-124.5 -92.5t-85 -133.5t-42.5 -156.5zM344 1420q0 22 16.5 39t38.5 17t39 -17t17 -39t-17 -38.5t-39 -16.5t-38.5 16.5t-16.5 38.5zM789 1420q0 22 16.5 39 t38.5 17t39 -17t17 -39t-17 -38.5t-39 -16.5t-38.5 16.5t-16.5 38.5z" />
<glyph unicode="&#xec;" d="M239 0v54h397v974h-397v54h451v-1028h384v-54h-835zM458 1555h65l180 -266h-58z" />
<glyph unicode="&#xed;" d="M239 0v54h397v974h-397v54h451v-1028h384v-54h-835zM625 1289l184 266h66l-191 -266h-59z" />
<glyph unicode="&#xee;" d="M239 0v54h397v974h-397v54h451v-1028h384v-54h-835zM413 1303v14l230 239h40l234 -243v-10h-68l-187 196l-185 -196h-64z" />
<glyph unicode="&#xef;" d="M239 0v54h397v974h-397v54h451v-1028h384v-54h-835zM374 1460q0 22 16.5 39t38.5 17t39 -17t17 -39t-17 -38.5t-39 -16.5t-38.5 16.5t-16.5 38.5zM819 1460q0 22 16.5 39t38.5 17t39 -17t17 -39t-17 -38.5t-39 -16.5t-38.5 16.5t-16.5 38.5z" />
<glyph unicode="&#xf0;" d="M99 465q0 103 31 192t91 155t147.5 103.5t200.5 37.5q55 0 109 -11.5t103 -33.5t91 -55.5t72 -76.5q-23 155 -85.5 278t-162.5 220l-235 -125l-29 48l220 117q-78 66 -172.5 118.5t-206.5 94.5l20 50q122 -45 224.5 -103.5t185.5 -132.5l225 120l30 -48l-212 -112 q127 -128 195 -298t69 -388v-80q-1 -64 -13.5 -130.5t-38 -128t-64 -115.5t-90.5 -94t-118.5 -63.5t-147.5 -23.5q-93 0 -173.5 38t-139 104t-92.5 154t-34 189zM155 465q0 -90 30 -168t82 -135.5t122.5 -90.5t152.5 -33q73 0 132 21.5t105 57.5t79 84.5t54.5 104t32 114 t11.5 115.5v82q0 33 -3 65q-24 53 -67 93t-95.5 66.5t-110.5 40t-111 13.5q-100 0 -177 -33.5t-130 -91.5t-80 -136.5t-27 -168.5z" />
<glyph unicode="&#xf1;" d="M212 0v1082h55v-260q26 60 65.5 111.5t91 88.5t113.5 58.5t133 21.5q93 0 160.5 -30t111.5 -83.5t65 -127.5t22 -161l1 -700h-55v700q-1 76 -18.5 140.5t-54.5 111t-95 72.5t-140 25q-73 -1 -139 -29t-119 -75t-90 -110t-52 -133v-702h-55zM293 1298q2 37 14.5 69.5 t34 57t52.5 38.5t71 14q42 0 76 -19.5t65.5 -43t64 -42.5t73.5 -19q29 0 50 11t35 29t21.5 41.5t10.5 49.5h54q-2 -37 -14 -70.5t-34 -59t-52.5 -41t-70.5 -15.5q-29 0 -53 9.5t-46 23.5t-42.5 30t-42 30t-45 23t-50.5 9q-29 0 -50 -10t-35 -27t-22 -39.5t-11 -48.5h-54z " />
<glyph unicode="&#xf2;" d="M141 520v42q1 104 33 201.5t92 172.5t147.5 120.5t200.5 45.5t200.5 -45t148 -120t92.5 -172.5t33 -202.5v-42q-1 -104 -32.5 -201.5t-91.5 -172.5t-147.5 -120.5t-200.5 -45.5t-201 45t-148.5 120t-92.5 172.5t-33 202.5zM195 520q1 -92 29.5 -179.5t82 -155.5 t131.5 -109.5t178 -41.5t177 41.5t130.5 110t81.5 155.5t29 179v42q-1 91 -29.5 178.5t-82 155.5t-131.5 110t-177 42t-176.5 -42t-131 -110t-82 -155.5t-29.5 -178.5v-42zM414 1514h65l180 -266h-58z" />
<glyph unicode="&#xf3;" d="M141 520v42q1 104 33 201.5t92 172.5t147.5 120.5t200.5 45.5t200.5 -45t148 -120t92.5 -172.5t33 -202.5v-42q-1 -104 -32.5 -201.5t-91.5 -172.5t-147.5 -120.5t-200.5 -45.5t-201 45t-148.5 120t-92.5 172.5t-33 202.5zM195 520q1 -92 29.5 -179.5t82 -155.5 t131.5 -109.5t178 -41.5t177 41.5t130.5 110t81.5 155.5t29 179v42q-1 91 -29.5 178.5t-82 155.5t-131.5 110t-177 42t-176.5 -42t-131 -110t-82 -155.5t-29.5 -178.5v-42zM581 1248l184 266h66l-191 -266h-59z" />
<glyph unicode="&#xf4;" d="M141 520v42q1 104 33 201.5t92 172.5t147.5 120.5t200.5 45.5t200.5 -45t148 -120t92.5 -172.5t33 -202.5v-42q-1 -104 -32.5 -201.5t-91.5 -172.5t-147.5 -120.5t-200.5 -45.5t-201 45t-148.5 120t-92.5 172.5t-33 202.5zM195 520q1 -92 29.5 -179.5t82 -155.5 t131.5 -109.5t178 -41.5t177 41.5t130.5 110t81.5 155.5t29 179v42q-1 91 -29.5 178.5t-82 155.5t-131.5 110t-177 42t-176.5 -42t-131 -110t-82 -155.5t-29.5 -178.5v-42zM370 1262v14l230 239h40l234 -243v-10h-68l-187 196l-185 -196h-64z" />
<glyph unicode="&#xf5;" d="M141 520v42q1 104 33 201.5t92 172.5t147.5 120.5t200.5 45.5t200.5 -45t148 -120t92.5 -172.5t33 -202.5v-42q-1 -104 -32.5 -201.5t-91.5 -172.5t-147.5 -120.5t-200.5 -45.5t-201 45t-148.5 120t-92.5 172.5t-33 202.5zM195 520q1 -92 29.5 -179.5t82 -155.5 t131.5 -109.5t178 -41.5t177 41.5t130.5 110t81.5 155.5t29 179v42q-1 91 -29.5 178.5t-82 155.5t-131.5 110t-177 42t-176.5 -42t-131 -110t-82 -155.5t-29.5 -178.5v-42zM302 1298q2 37 14.5 69.5t34 57t52.5 38.5t71 14q42 0 76 -19.5t65.5 -43t64 -42.5t73.5 -19 q29 0 50 11t35 29t21.5 41.5t10.5 49.5h54q-2 -37 -14 -70.5t-34 -59t-52.5 -41t-70.5 -15.5q-29 0 -53 9.5t-46 23.5t-42.5 30t-42 30t-45 23t-50.5 9q-29 0 -50 -10t-35 -27t-22 -39.5t-11 -48.5h-54z" />
<glyph unicode="&#xf6;" d="M141 520v42q1 104 33 201.5t92 172.5t147.5 120.5t200.5 45.5t200.5 -45t148 -120t92.5 -172.5t33 -202.5v-42q-1 -104 -32.5 -201.5t-91.5 -172.5t-147.5 -120.5t-200.5 -45.5t-201 45t-148.5 120t-92.5 172.5t-33 202.5zM195 520q1 -92 29.5 -179.5t82 -155.5 t131.5 -109.5t178 -41.5t177 41.5t130.5 110t81.5 155.5t29 179v42q-1 91 -29.5 178.5t-82 155.5t-131.5 110t-177 42t-176.5 -42t-131 -110t-82 -155.5t-29.5 -178.5v-42zM331 1419q0 22 16.5 39t38.5 17t39 -17t17 -39t-17 -38.5t-39 -16.5t-38.5 16.5t-16.5 38.5z M776 1419q0 22 16.5 39t38.5 17t39 -17t17 -39t-17 -38.5t-39 -16.5t-38.5 16.5t-16.5 38.5z" />
<glyph unicode="&#xf7;" d="M115 686v52h998v-52h-998zM571 301q0 22 16.5 39t38.5 17t39 -17t17 -39t-17 -38.5t-39 -16.5t-38.5 16.5t-16.5 38.5zM571 1079q0 22 16.5 39t38.5 17t39 -17t17 -39t-17 -38.5t-39 -16.5t-38.5 16.5t-16.5 38.5z" />
<glyph unicode="&#xf8;" d="M141 520v42q1 104 33 201.5t92 172.5t147.5 120.5t200.5 45.5q99 0 182 -37l75 154h63l-88 -180q58 -35 103 -86.5t75.5 -114t46.5 -133t17 -143.5v-42q-1 -104 -32.5 -201.5t-91.5 -172.5t-147.5 -120.5t-200.5 -45.5q-73 0 -135 19t-114 54l-96 -198h-63l113 233 q-44 38 -77 86.5t-55.5 104t-34.5 117t-13 124.5zM195 520q2 -109 40.5 -209.5t111.5 -170.5l425 875q-35 16 -74.5 24.5t-83.5 8.5q-99 0 -176.5 -42t-131 -110t-82 -155.5t-29.5 -178.5v-42zM392 103q46 -33 102 -51t122 -18q100 0 177 41.5t130.5 110t81.5 155.5t29 179 v42q-1 63 -15 125.5t-41 118.5t-66 102.5t-90 79.5z" />
<glyph unicode="&#xf9;" d="M216 395v687h54v-689q1 -75 19 -140t55.5 -114t95.5 -77t139 -28q78 0 143 20.5t114.5 59t82 94t46.5 125.5l-1 749h56v-1082h-56l1 193q-52 -100 -148.5 -156.5t-235.5 -56.5q-94 0 -162.5 32t-113 87.5t-66.5 131.5t-23 164zM380 1516h65l180 -266h-58z" />
<glyph unicode="&#xfa;" d="M216 395v687h54v-689q1 -75 19 -140t55.5 -114t95.5 -77t139 -28q78 0 143 20.5t114.5 59t82 94t46.5 125.5l-1 749h56v-1082h-56l1 193q-52 -100 -148.5 -156.5t-235.5 -56.5q-94 0 -162.5 32t-113 87.5t-66.5 131.5t-23 164zM547 1250l184 266h66l-191 -266h-59z" />
<glyph unicode="&#xfb;" d="M216 395v687h54v-689q1 -75 19 -140t55.5 -114t95.5 -77t139 -28q78 0 143 20.5t114.5 59t82 94t46.5 125.5l-1 749h56v-1082h-56l1 193q-52 -100 -148.5 -156.5t-235.5 -56.5q-94 0 -162.5 32t-113 87.5t-66.5 131.5t-23 164zM336 1264v14l230 239h40l234 -243v-10h-68 l-187 196l-185 -196h-64z" />
<glyph unicode="&#xfc;" d="M216 395v687h54v-689q1 -75 19 -140t55.5 -114t95.5 -77t139 -28q78 0 143 20.5t114.5 59t82 94t46.5 125.5l-1 749h56v-1082h-56l1 193q-52 -100 -148.5 -156.5t-235.5 -56.5q-94 0 -162.5 32t-113 87.5t-66.5 131.5t-23 164zM297 1421q0 22 16.5 39t38.5 17t39 -17 t17 -39t-17 -38.5t-39 -16.5t-38.5 16.5t-16.5 38.5zM742 1421q0 22 16.5 39t38.5 17t39 -17t17 -39t-17 -38.5t-39 -16.5t-38.5 16.5t-16.5 38.5z" />
<glyph unicode="&#xfd;" d="M84 1082h63l476 -1008l13 30l440 978h65l-569 -1262q-25 -56 -55.5 -102.5t-70 -81t-90.5 -54t-117 -19.5q-44 0 -90 11l-2 51q20 -3 41 -6t42 -3q54 0 98 15.5t79 44t62 68t48 86.5l75 172zM593 1250l184 266h66l-191 -266h-59z" />
<glyph unicode="&#xfe;" d="M220 -416v1952h54v-638q28 46 68.5 84t88.5 64.5t101.5 41t108.5 14.5q75 0 134.5 -23t104.5 -62.5t77 -93.5t52 -115t29.5 -126.5t10.5 -129.5v-21q-1 -63 -10.5 -128.5t-30 -126.5t-52 -115t-76.5 -94t-104 -63.5t-133 -23.5q-52 0 -105 12t-101.5 35t-90.5 56.5 t-72 77.5v-577h-54zM274 258q21 -54 60 -96t89 -70.5t107 -43t114 -14.5q67 0 118.5 21.5t90.5 58.5t65.5 86t43 104t24 113t8.5 114v21q0 56 -8 114.5t-24.5 113.5t-43.5 103.5t-66 85t-91 58t-119 21.5q-63 0 -120.5 -19t-106 -53t-85 -82t-56.5 -106v-530z" />
<glyph unicode="&#xff;" d="M84 1082h63l476 -1008l13 30l440 978h65l-569 -1262q-25 -56 -55.5 -102.5t-70 -81t-90.5 -54t-117 -19.5q-44 0 -90 11l-2 51q20 -3 41 -6t42 -3q54 0 98 15.5t79 44t62 68t48 86.5l75 172zM342 1421q0 22 16.5 39t38.5 17t39 -17t17 -39t-17 -38.5t-39 -16.5 t-38.5 16.5t-16.5 38.5zM787 1421q0 22 16.5 39t38.5 17t39 -17t17 -39t-17 -38.5t-39 -16.5t-38.5 16.5t-16.5 38.5z" />
<glyph unicode="&#x152;" d="M73 576v304q1 54 8 118t25 128.5t47.5 125.5t74.5 108t107 76t145 30q57 1 112.5 -1t111.5 -9h489v-54h-484v-626h418v-54h-418v-668h484v-54h-489q-56 -6 -110.5 -9t-111.5 -2q-83 1 -145 30t-107.5 76t-75.5 108t-47.5 126t-25.5 129t-8 118zM127 576q0 -46 5.5 -103 t20 -116t39.5 -115t64.5 -99.5t95 -71t130.5 -28.5q45 -1 89.5 -1t89.5 5v1361q-45 5 -89.5 5t-90.5 -1q-75 -1 -131 -28t-95 -70.5t-64 -99t-39 -114t-19.5 -115.5t-5.5 -103v-306z" />
<glyph unicode="&#x153;" d="M8 460v162q0 46 7 99.5t21.5 107t39 102.5t61 87t86.5 61t115 23q67 0 117 -23.5t87 -62.5t61 -90t39 -105q14 54 37.5 104.5t58.5 89.5t83 63t111 24q84 0 139.5 -36.5t88.5 -94.5t47 -129.5t15 -141.5l-3 -143h-549v-117q0 -36 5.5 -79.5t17.5 -88.5t31.5 -87.5 t48.5 -75.5t69 -53.5t92 -21.5q43 -1 78.5 9.5t65 26.5t54 36t45.5 39l27 -42q-26 -25 -55 -47.5t-62.5 -39.5t-71.5 -26.5t-81 -9.5q-62 1 -110 24.5t-83.5 62.5t-59.5 88.5t-39 102.5q-15 -54 -39 -104t-60.5 -89t-86.5 -62t-116 -23q-65 0 -115 22.5t-87 60.5t-61.5 87.5 t-39.5 103t-22 107t-7 99.5zM62 460q0 -38 5 -84.5t17 -94t32.5 -92t51.5 -79t73 -55.5t99 -21q56 0 98 21t72.5 55.5t50.5 79.5t32 92t17 93.5t5 84.5v162q0 38 -5.5 84.5t-17.5 93.5t-32.5 92t-51 79.5t-72.5 55.5t-98 21q-55 0 -97 -21t-73 -56t-51 -79.5t-32 -92 t-17.5 -93.5t-5.5 -84v-162zM670 611h501l1 81q2 48 -9 109.5t-38.5 116.5t-75 92.5t-117.5 37.5q-54 0 -94.5 -21.5t-69.5 -57t-48 -80.5t-30 -92t-15.5 -92.5t-4.5 -80.5v-13z" />
<glyph unicode="&#x178;" d="M90 1456h67l440 -854l446 854h63l-482 -903v-553h-52l-1 553zM308 1729q0 22 16.5 39t38.5 17t39 -17t17 -39t-17 -38.5t-39 -16.5t-38.5 16.5t-16.5 38.5zM753 1729q0 22 16.5 39t38.5 17t39 -17t17 -39t-17 -38.5t-39 -16.5t-38.5 16.5t-16.5 38.5z" />
<glyph unicode="&#x2c6;" d="M386 1264v14l230 239h40l234 -243v-10h-68l-187 196l-185 -196h-64z" />
<glyph unicode="&#x2dc;" d="M156 1286q2 37 14.5 69.5t34 57t52.5 38.5t71 14q42 0 76 -19.5t65.5 -43t64 -42.5t73.5 -19q29 0 50 11t35 29t21.5 41.5t10.5 49.5h54q-2 -37 -14 -70.5t-34 -59t-52.5 -41t-70.5 -15.5q-29 0 -53 9.5t-46 23.5t-42.5 30t-42 30t-45 23t-50.5 9q-29 0 -50 -10t-35 -27 t-22 -39.5t-11 -48.5h-54z" />
<glyph unicode="&#x2000;" horiz-adv-x="937" />
<glyph unicode="&#x2001;" horiz-adv-x="1875" />
<glyph unicode="&#x2002;" horiz-adv-x="937" />
<glyph unicode="&#x2003;" horiz-adv-x="1875" />
<glyph unicode="&#x2004;" horiz-adv-x="625" />
<glyph unicode="&#x2005;" horiz-adv-x="468" />
<glyph unicode="&#x2006;" horiz-adv-x="312" />
<glyph unicode="&#x2007;" horiz-adv-x="312" />
<glyph unicode="&#x2008;" horiz-adv-x="234" />
<glyph unicode="&#x2009;" horiz-adv-x="375" />
<glyph unicode="&#x200a;" horiz-adv-x="104" />
<glyph unicode="&#x2010;" horiz-adv-x="1230" d="M240 639v54h718v-54h-718z" />
<glyph unicode="&#x2011;" horiz-adv-x="1230" d="M240 639v54h718v-54h-718z" />
<glyph unicode="&#x2012;" horiz-adv-x="1230" d="M240 639v54h718v-54h-718z" />
<glyph unicode="&#x2013;" d="M81 721v54h1085v-54h-1085z" />
<glyph unicode="&#x2014;" d="M90 721v54h1085v-54h-1085z" />
<glyph unicode="&#x2018;" d="M562 1168v104q1 80 26 151t78 131l37 -32q-42 -57 -64 -116.5t-23 -131.5v-106h-54z" />
<glyph unicode="&#x2019;" d="M526 1183q42 57 64 116.5t24 131.5v105h54v-103q-2 -80 -26.5 -151t-78.5 -131z" />
<glyph unicode="&#x201a;" d="M508 -150q42 57 65 116.5t24 131.5v130h54v-128q-2 -81 -27 -151.5t-79 -130.5z" />
<glyph unicode="&#x201c;" d="M400 1168v104q1 80 26 151t78 131l37 -32q-42 -57 -64 -116.5t-23 -131.5v-106h-54zM697 1168v104q1 80 26 151t78 131l37 -32q-42 -57 -64 -116.5t-23 -131.5v-106h-54z" />
<glyph unicode="&#x201d;" d="M431 1183q42 57 64 116.5t24 131.5v105h54v-103q-2 -80 -26.5 -151t-78.5 -131zM720 1183q42 57 64 116.5t24 131.5v105h54v-103q-2 -80 -26.5 -151t-78.5 -131z" />
<glyph unicode="&#x201e;" d="M386 -150q42 57 64 116.5t23 131.5v130h54v-128q-2 -80 -26.5 -151t-77.5 -131zM594 -150q42 57 64 116.5t23 131.5v130h54v-128q-2 -80 -26.5 -151t-78.5 -131z" />
<glyph unicode="&#x2022;" d="M447 703v30q1 35 14 64.5t35 50.5t51.5 33t65.5 12t66 -11.5t52 -32.5t35 -50.5t15 -65.5v-30q-2 -35 -14.5 -64t-34.5 -50t-52 -32.5t-66 -11.5t-66 11.5t-52 32.5t-35 50t-14 64z" />
<glyph unicode="&#x2026;" d="M255 52q0 25 18 42.5t40 17.5q23 0 41.5 -17.5t18.5 -42.5q0 -24 -18.5 -41t-41.5 -17q-22 0 -40 17t-18 41zM589 52q0 25 18 42.5t40 17.5q23 0 41.5 -17.5t18.5 -42.5q0 -24 -18.5 -41t-41.5 -17q-22 0 -40 17t-18 41zM915 52q0 25 18 42.5t40 17.5q23 0 41.5 -17.5 t18.5 -42.5q0 -24 -18.5 -41t-41.5 -17q-22 0 -40 17t-18 41z" />
<glyph unicode="&#x202f;" horiz-adv-x="375" />
<glyph unicode="&#x2039;" d="M432 551v19l295 370h70l-294 -380l294 -379h-70z" />
<glyph unicode="&#x203a;" d="M433 171l293 379l-293 390h70l294 -380v-19l-294 -370h-70z" />
<glyph unicode="&#x205f;" horiz-adv-x="468" />
<glyph unicode="&#x20ac;" d="M118 584v55h204v191h-204v56h204v36q1 120 38 221.5t105 175.5t166 115.5t222 41.5q57 0 111.5 -8.5t109.5 -22.5v-58q-54 16 -109 25.5t-112 9.5q-113 0 -201.5 -36.5t-149 -102.5t-93 -157.5t-33.5 -201.5v-38h453v-56h-453v-191h453v-55h-453v-50q1 -109 34 -201 t94.5 -158.5t149.5 -104t201 -37.5q56 0 110.5 8.5t108.5 25.5v-57q-54 -15 -108.5 -23t-110.5 -8q-124 0 -222 41.5t-167 115.5t-106 176t-38 222v50h-204z" />
<glyph unicode="&#x2122;" d="M105 1399v57h396v-57h-170v-480h-56v480h-170zM587 919v537h69l176 -459l176 459h69v-537h-55v437l-164 -437h-52l-164 451v-451h-55z" />
<glyph unicode="&#x25fc;" horiz-adv-x="1080" d="M0 0v1080h1080v-1080h-1080z" />
</font>
</defs>
</svg>
