<?xml version="1.0" encoding="utf-8"?>
<!-- Generator: Adobe Illustrator 20.0.0, SVG Export Plug-In . SVG Version: 6.00 Build 0)  -->
<svg version="1.1" id="DPP-PIN-MARKER" xmlns="http://www.w3.org/2000/svg" xmlns:xlink="http://www.w3.org/1999/xlink" x="0px"
	 y="0px" viewBox="0 0 48 64" style="enable-background:new 0 0 48 64;" width="24" height="36" xml:space="preserve">
<style type="text/css">
	.st0{fill:#FFFFFF;}
	.st1{fill:#F26223;}
	.st2{fill:none;stroke:#F26223;stroke-width:2;stroke-miterlimit:10;}
</style>
<g>
	<g>
		<path class="st0" d="M6.9,35.76c-2.89-3.84-4.4-8.35-4.4-13.11c0-11.98,9.74-21.72,21.72-21.72c11.98,0,21.72,9.74,21.72,21.72
			c0,4.52-1.38,8.86-3.99,12.54L24.24,62.11L6.9,35.76z"/>
	</g>
	<g>
		<path class="st1" d="M24.22,1.93c11.43,0,20.72,9.3,20.72,20.72c0,4.31-1.32,8.45-3.83,11.99l-0.03,0.05l-16.84,25.6L7.74,35.21
			l-0.07-0.1C4.94,31.49,3.5,27.19,3.5,22.65C3.5,11.22,12.8,1.93,24.22,1.93 M24.22-0.07C11.7-0.07,1.5,10.12,1.5,22.65
			c0,4.97,1.58,9.7,4.56,13.66l18.17,27.62l18.51-28.14l0.01-0.02c2.73-3.85,4.18-8.39,4.18-13.12
			C46.94,10.12,36.75-0.07,24.22-0.07L24.22-0.07z"/>
	</g>
</g>
<g>
	<g>
		<g>
			<path class="st1" d="M32.66,12c1.03,0,1.87,0.87,1.87,1.94L35,30.68c0,1.07-0.84,1.94-1.87,1.94h-3.28h-11.7h-3.28
				c-1.03,0-1.87-0.87-1.87-1.94l0.47-16.74c0-1.07,0.84-1.94,1.87-1.94H32.66 M33.13,34.06V36h-2.81v-1.94H33.13 M17.68,34.06V36
				h-2.81v-1.94H17.68 M32.66,10H15.34c-2.12,0-3.85,1.75-3.87,3.91L11,30.63l0,0.03v0.03c0,1.43,0.75,2.68,1.87,3.37v0V36v2h2h2.81
				h2v-2v-1.38h8.64V36v2h2h2.81h2v-2v-1.94v0c1.12-0.69,1.87-1.94,1.87-3.37v-0.03l0-0.03l-0.47-16.72
				C36.51,11.75,34.78,10,32.66,10L32.66,10z"/>
		</g>
		<path class="st2" d="M16.28,14.91h15.45l0.47,8.25H15.81L16.28,14.91z"/>
	</g>
	<g>
		<path class="st2" d="M16.34,27.02c-0.77,0-1.4,0.65-1.4,1.46c0,0.8,0.63,1.46,1.4,1.46c0.77,0,1.4-0.65,1.4-1.46
			C17.74,27.68,17.11,27.02,16.34,27.02z"/>
	</g>
	<g>
		<path class="st2" d="M31.78,27.02c-0.77,0-1.4,0.65-1.4,1.46c0,0.8,0.63,1.46,1.4,1.46c0.77,0,1.4-0.65,1.4-1.46
			C33.19,27.68,32.56,27.02,31.78,27.02z"/>
	</g>
</g>
</svg>
