<?xml version="1.0" encoding="utf-8"?>
<!-- Generator: Adobe Illustrator 20.0.0, SVG Export Plug-In . SVG Version: 6.00 Build 0)  -->
<svg version="1.1" id="DPP-PIN-MARKER" xmlns="http://www.w3.org/2000/svg" xmlns:xlink="http://www.w3.org/1999/xlink" x="0px"
	 y="0px" viewBox="0 0 48 64" style="enable-background:new 0 0 48 64;" width="24" height="36" xml:space="preserve">
<style type="text/css">
	.st0{fill:#FFFFFF;}
	.st1{fill:#F26223;}
	.st2{fill:none;stroke:#F26223;stroke-width:2;stroke-miterlimit:10;}
</style>
<g>
	<g>
		<path class="st0" d="M6.9,35.76c-2.89-3.84-4.4-8.35-4.4-13.11c0-11.98,9.74-21.72,21.72-21.72c11.98,0,21.72,9.74,21.72,21.72
			c0,4.52-1.38,8.86-3.99,12.54L24.24,62.11L6.9,35.76z"/>
	</g>
	<g>
		<path class="st1" d="M24.22,1.93c11.43,0,20.72,9.3,20.72,20.72c0,4.31-1.32,8.45-3.83,11.99l-0.03,0.05l-16.84,25.6L7.74,35.21
			l-0.07-0.1C4.94,31.49,3.5,27.19,3.5,22.65C3.5,11.22,12.8,1.93,24.22,1.93 M24.22-0.07C11.7-0.07,1.5,10.12,1.5,22.65
			c0,4.97,1.58,9.7,4.56,13.66l18.17,27.62l18.51-28.14l0.01-0.02c2.73-3.85,4.18-8.39,4.18-13.12
			C46.94,10.12,36.75-0.07,24.22-0.07L24.22-0.07z"/>
	</g>
</g>
<g>
	<g>
		<path class="st2" d="M17.11,33.84h-3.06v-2.81h3.06V33.84z M33.96,33.84h-3.06v-2.81h3.06V33.84z M36,28.99
			c0,1.13-0.92,2.04-2.04,2.04h-3.57H17.62h-3.57c-1.13,0-2.04-0.92-2.04-2.04l0.51-4.81c0-1.13,0.92-2.04,2.04-2.04h18.89
			c1.13,0,2.04,0.92,2.04,2.04L36,28.99z"/>
	</g>
	<g>
		<path class="st2" d="M17.57,25.31c-0.84,0-1.53,0.69-1.53,1.53s0.69,1.53,1.53,1.53c0.84,0,1.53-0.69,1.53-1.53
			S18.42,25.31,17.57,25.31z"/>
	</g>
	<g>
		<path class="st2" d="M30.43,25.31c-0.84,0-1.53,0.69-1.53,1.53s0.69,1.53,1.53,1.53s1.53-0.69,1.53-1.53S31.27,25.31,30.43,25.31z
			"/>
	</g>
	<g>
		<path class="st2" d="M16.25,22.14h15.56l-0.56-3.45c-0.21-1.08-1.16-1.86-2.26-1.86h-9.92c-1.1,0-2.05,0.78-2.26,1.86L16.25,22.14
			z"/>
	</g>
	<g>
		<g>
			<path class="st1" d="M25.69,14.16c0.56,0,1.02,0.46,1.02,1.02v0.59h-5.62v-0.59c0-0.56,0.46-1.02,1.02-1.02H25.69 M25.69,12.16
				h-3.57c-1.67,0-3.02,1.36-3.02,3.02v0.59v2h2h5.62h2v-2v-0.59C28.71,13.52,27.35,12.16,25.69,12.16L25.69,12.16z"/>
		</g>
	</g>
</g>
</svg>
