<?xml version="1.0" encoding="utf-8"?>
<!-- Generator: Adobe Illustrator 20.0.0, SVG Export Plug-In . SVG Version: 6.00 Build 0)  -->
<svg version="1.1" id="DPP-PIN-MARKER" xmlns="http://www.w3.org/2000/svg" xmlns:xlink="http://www.w3.org/1999/xlink" x="0px"
	 y="0px" viewBox="0 0 48 64" style="enable-background:new 0 0 48 64;" width="24" height="36" xml:space="preserve">
<style type="text/css">
	.st0{fill:#FFFFFF;}
	.st1{fill:#F26223;}
	.st2{fill:none;stroke:#F26223;stroke-width:2;stroke-linecap:round;stroke-miterlimit:10;}
</style>
<g>
	<g>
		<path class="st0" d="M6.9,35.76c-2.89-3.84-4.4-8.35-4.4-13.11c0-11.98,9.74-21.72,21.72-21.72c11.98,0,21.72,9.74,21.72,21.72
			c0,4.52-1.38,8.86-3.99,12.54L24.24,62.11L6.9,35.76z"/>
	</g>
	<g>
		<path class="st1" d="M24.22,1.93c11.43,0,20.72,9.3,20.72,20.72c0,4.31-1.32,8.45-3.83,11.99l-0.03,0.05l-16.84,25.6L7.74,35.21
			l-0.07-0.1C4.94,31.49,3.5,27.19,3.5,22.65C3.5,11.22,12.8,1.93,24.22,1.93 M24.22-0.07C11.7-0.07,1.5,10.12,1.5,22.65
			c0,4.97,1.58,9.7,4.56,13.66l18.17,27.62l18.51-28.14l0.01-0.02c2.73-3.85,4.18-8.39,4.18-13.12
			C46.94,10.12,36.75-0.07,24.22-0.07L24.22-0.07z"/>
	</g>
</g>
<g>
	<g>
		<g>
			<path class="st1" d="M30.95,12.3c0.31,0,0.56,0.25,0.56,0.56l-0.74,3.06c1.14,1.16,1.97,2.59,2.37,4.18h2.31
				c0.31,0,0.56,0.25,0.56,0.56l-0.62,4.56c0,0.31-0.25,0.56-0.56,0.56h-2.16c-0.41,0.93-0.97,1.77-1.65,2.52l0.65,1.44
				c0.13,0.28,0,0.61-0.28,0.74l-2.6,1.17c-0.07,0.03-0.15,0.05-0.23,0.05c-0.21,0-0.42-0.12-0.51-0.33l-0.33-0.73
				c-1.22,0.53-2.57,0.82-4,0.82c-1.44,0-2.81-0.3-4.04-0.84l-0.34,0.74c-0.09,0.21-0.3,0.33-0.51,0.33c-0.08,0-0.15-0.02-0.23-0.05
				l-2.6-1.17c-0.28-0.13-0.41-0.46-0.28-0.74l0.66-1.47C14.89,26.65,14,24.54,14,22.24c0-5.1,4.34-9.23,9.7-9.23
				c1.6,0,3.11,0.37,4.43,1.02L30.95,12.3 M30.95,10.3h-0.57l-0.48,0.3l-1.93,1.19c-1.36-0.51-2.79-0.77-4.27-0.77
				c-6.45,0-11.7,5.04-11.7,11.23c0,2.27,0.72,4.47,2.04,6.33l-0.16,0.35c-0.58,1.29,0,2.81,1.28,3.39l2.6,1.17
				c0.33,0.15,0.69,0.23,1.05,0.23c0.64,0,1.25-0.24,1.71-0.66c1.03,0.28,2.09,0.42,3.17,0.42c1.07,0,2.12-0.14,3.14-0.41
				c0.46,0.41,1.06,0.65,1.7,0.65c0.37,0,0.72-0.08,1.05-0.23l2.6-1.17c1.29-0.58,1.86-2.1,1.28-3.38l-0.14-0.31
				c0.19-0.27,0.37-0.54,0.54-0.82h0.95c1.35,0,2.46-1.05,2.55-2.38l0.61-4.47L38,20.8v-0.14c0-1.41-1.15-2.56-2.56-2.56h-0.86
				c-0.4-0.98-0.95-1.9-1.62-2.73l0.49-2.05l0.06-0.23v-0.24C33.51,11.45,32.36,10.3,30.95,10.3L30.95,10.3z"/>
		</g>
	</g>
	<line class="st2" x1="24.12" y1="26.94" x2="24.12" y2="28.5"/>
	<path class="st2" d="M24.12,26.94"/>
	<path class="st2" d="M24.12,17.44"/>
	<line class="st2" x1="24.12" y1="15.5" x2="24.12" y2="17.44"/>
	<path class="st2" d="M21.74,24.3c0,0-0.02,2.41,2.51,2.26c2.11-0.13,2.27-1.78,2.27-2.31s-0.41-1.44-2.29-2.26s-2.26-1.4-2.46-2.08
		c-0.2-0.68,0.26-2.48,2.34-2.48c1.11,0,1.85,0.55,2.14,1.22c0.26,0.58,0.26,1.07,0.26,1.07"/>
</g>
</svg>
