<?xml version="1.0" encoding="utf-8"?>
<!-- Generator: Adobe Illustrator 20.0.0, SVG Export Plug-In . SVG Version: 6.00 Build 0)  -->
<svg version="1.1" id="DPP-PIN-MARKER" xmlns="http://www.w3.org/2000/svg" xmlns:xlink="http://www.w3.org/1999/xlink" x="0px"
	 y="0px" viewBox="0 0 48 64" style="enable-background:new 0 0 48 64;" width="24" height="36" xml:space="preserve">
<style type="text/css">
	.st0{fill:#FFFFFF;}
	.st1{fill:#F26223;}
	.st2{fill:none;stroke:#F26223;stroke-width:2;stroke-miterlimit:10;}
</style>
<g>
	<g>
		<path class="st0" d="M6.9,35.76c-2.89-3.84-4.4-8.35-4.4-13.11c0-11.98,9.74-21.72,21.72-21.72c11.98,0,21.72,9.74,21.72,21.72
			c0,4.52-1.38,8.86-3.99,12.54L24.24,62.11L6.9,35.76z"/>
	</g>
	<g>
		<path class="st1" d="M24.22,1.93c11.43,0,20.72,9.3,20.72,20.72c0,4.31-1.32,8.45-3.83,11.99l-0.03,0.05l-16.84,25.6L7.74,35.21
			l-0.07-0.1C4.94,31.49,3.5,27.19,3.5,22.65C3.5,11.22,12.8,1.93,24.22,1.93 M24.22-0.07C11.7-0.07,1.5,10.12,1.5,22.65
			c0,4.97,1.58,9.7,4.56,13.66l18.17,27.62l18.51-28.14l0.01-0.02c2.73-3.85,4.18-8.39,4.18-13.12
			C46.94,10.12,36.75-0.07,24.22-0.07L24.22-0.07z"/>
	</g>
</g>
<g>
	<g>
		<path class="st2" d="M31.45,10H16.55c-1.65,0-2.98,1.33-2.98,2.98v1.79h0.89l0.34,3.28h-0.34l1.49,14h0.29l0.31,2.98
			c0,1.64,1.33,2.98,2.98,2.98h8.94c1.64,0,2.98-1.33,2.98-2.98l0.31-2.98h0.29l1.49-14h-0.34l0.34-3.28h0.89v-1.79
			C34.43,11.33,33.09,10,31.45,10z"/>
		<path class="st2" d="M19.53,25.11c0,2.47,2,4.47,4.47,4.47c2.47,0,4.47-2,4.47-4.47c0-2.47-2-4.47-4.47-4.47
			C21.53,20.65,19.53,22.65,19.53,25.11z"/>
	</g>
	<line class="st2" x1="14.81" y1="18.04" x2="33.19" y2="18.04"/>
	<line class="st2" x1="33.53" y1="14.77" x2="14.47" y2="14.77"/>
	<line class="st2" x1="15.96" y1="32.04" x2="31.75" y2="32.04"/>
</g>
</svg>
