<?xml version="1.0" encoding="utf-8"?>
<!-- Generator: Adobe Illustrator 20.0.0, SVG Export Plug-In . SVG Version: 6.00 Build 0)  -->
<svg version="1.1" id="DPP-PIN-MARKER" xmlns="http://www.w3.org/2000/svg" xmlns:xlink="http://www.w3.org/1999/xlink" x="0px"
	 y="0px" viewBox="0 0 48 64" style="enable-background:new 0 0 48 64;" width="36" height="48" xml:space="preserve">
<style type="text/css">
	.st0{fill:#F26223;}
	.st1{fill:#FFFFFF;}
</style>
<g>
	<g>
		<path class="st0" d="M6.9,35.76c-2.89-3.84-4.4-8.35-4.4-13.11c0-11.98,9.74-21.72,21.72-21.72c11.98,0,21.72,9.74,21.72,21.72
			c0,4.52-1.38,8.86-3.99,12.54L24.24,62.11L6.9,35.76z"/>
	</g>
	<g>
		<path class="st1" d="M24.22,1.93c11.43,0,20.72,9.3,20.72,20.72c0,4.31-1.32,8.45-3.83,11.99l-0.03,0.05l-16.84,25.6L7.74,35.21
			l-0.07-0.1C4.94,31.49,3.5,27.19,3.5,22.65C3.5,11.22,12.8,1.93,24.22,1.93 M24.22-0.07C11.7-0.07,1.5,10.12,1.5,22.65
			c0,4.97,1.58,9.7,4.56,13.66l18.17,27.62l18.51-28.14l0.01-0.02c2.73-3.85,4.18-8.39,4.18-13.12
			C46.94,10.12,36.75-0.07,24.22-0.07L24.22-0.07z"/>
	</g>
</g>
<g>
	<g>
		<path class="st1" d="M27.38,14c0.15,0,0.27,0.12,0.27,0.27V34H14.46V14.27c0-0.15,0.12-0.27,0.27-0.27H27.38 M22.22,19.12h2.44
			v-2.44h-2.44V19.12 M17.19,19.12h2.44v-2.44h-2.44V19.12 M22.22,24.23h2.44v-2.44h-2.44V24.23 M17.19,24.23h2.44v-2.44h-2.44
			V24.23 M22.22,29.34h2.44V26.9h-2.44V29.34 M17.19,29.34h2.44V26.9h-2.44V29.34 M27.38,12H14.73c-1.25,0-2.27,1.02-2.27,2.27V34v2
			h2h13.19h2v-2V14.27C29.65,13.02,28.63,12,27.38,12L27.38,12z"/>
	</g>
	<g>
		<path class="st1" d="M33.27,18.12c0.15,0,0.27,0.12,0.27,0.27V34h-3.89v-2.16h2.07v-3.11h-2.07v-1.3h2.07v-3.11h-2.07v-1.3h2.07
			v-3.11h-2.07v-1.77H33.27 M33.27,16.12h-3.62h-2v2v1.77v2v1.11v1.3v2v1.11v1.3v2v1.11V34v2h2h3.89h2v-2V18.39
			C35.54,17.14,34.52,16.12,33.27,16.12L33.27,16.12z"/>
	</g>
</g>
</svg>
